<svg width="512" height="512" viewBox="0 0 512 512" fill="none" xmlns="http://www.w3.org/2000/svg">
<rect width="512" height="512" rx="100" fill="url(#paint0_linear_15_21)"/>
<g filter="url(#filter0_in_15_21)">
<rect width="512" height="481.882" rx="100" fill="url(#paint1_linear_15_21)"/>
<rect x="0.25" y="0.25" width="511.5" height="481.382" rx="99.75" stroke="#878A9F" stroke-width="0.5"/>
</g>
<rect x="46.5" y="41.8015" width="419.978" height="398.059" rx="65.5" fill="#313536" stroke="#272727"/>
<rect x="57" y="49.3604" width="398.222" height="376.471" rx="55" fill="url(#paint2_linear_15_21)"/>
<rect x="57.25" y="49.6104" width="397.722" height="375.971" rx="54.75" stroke="black" stroke-opacity="0.8" stroke-width="0.5"/>
<g filter="url(#filter1_n_15_21)">
<rect x="57" y="49.3604" width="398.222" height="338.824" rx="60" fill="url(#paint3_linear_15_21)"/>
</g>
<g filter="url(#filter2_dddd_15_21)">
<mask id="path-8-inside-1_15_21" fill="white">
<path d="M178.262 281L203.319 128.273H221.217L196.16 281H178.262ZM109.132 240.134L112.04 222.236H227.779L224.871 240.134H109.132ZM124.569 281L149.626 128.273H167.523L142.467 281H124.569ZM118.006 187.037L120.915 169.139H236.653L233.745 187.037H118.006Z"/>
</mask>
<path d="M178.262 281L203.319 128.273H221.217L196.16 281H178.262ZM109.132 240.134L112.04 222.236H227.779L224.871 240.134H109.132ZM124.569 281L149.626 128.273H167.523L142.467 281H124.569ZM118.006 187.037L120.915 169.139H236.653L233.745 187.037H118.006Z" fill="#929798"/>
<path d="M178.262 281L177.275 280.838L177.085 282H178.262V281ZM203.319 128.273V127.273H202.47L202.332 128.111L203.319 128.273ZM221.217 128.273L222.203 128.435L222.394 127.273H221.217V128.273ZM196.16 281V282H197.009L197.147 281.162L196.16 281ZM109.132 240.134L108.145 239.973L107.956 241.134H109.132V240.134ZM112.04 222.236V221.236H111.19L111.053 222.075L112.04 222.236ZM227.779 222.236L228.766 222.396L228.955 221.236H227.779V222.236ZM224.871 240.134V241.134H225.721L225.858 240.294L224.871 240.134ZM124.569 281L123.582 280.838L123.391 282H124.569V281ZM149.626 128.273V127.273H148.776L148.639 128.111L149.626 128.273ZM167.523 128.273L168.51 128.435L168.701 127.273H167.523V128.273ZM142.467 281V282H143.316L143.453 281.162L142.467 281ZM118.006 187.037L117.019 186.877L116.831 188.037H118.006V187.037ZM120.915 169.139V168.139H120.064L119.928 168.979L120.915 169.139ZM236.653 169.139L237.64 169.3L237.829 168.139H236.653V169.139ZM233.745 187.037V188.037H234.596L234.732 187.197L233.745 187.037ZM178.262 281L179.249 281.162L204.306 128.435L203.319 128.273L202.332 128.111L177.275 280.838L178.262 281ZM203.319 128.273V129.273H221.217V128.273V127.273H203.319V128.273ZM221.217 128.273L220.23 128.111L195.173 280.838L196.16 281L197.147 281.162L222.203 128.435L221.217 128.273ZM196.16 281V280H178.262V281V282H196.16V281ZM109.132 240.134L110.119 240.294L113.028 222.396L112.04 222.236L111.053 222.075L108.145 239.973L109.132 240.134ZM112.04 222.236V223.236H227.779V222.236V221.236H112.04V222.236ZM227.779 222.236L226.792 222.075L223.884 239.973L224.871 240.134L225.858 240.294L228.766 222.396L227.779 222.236ZM224.871 240.134V239.134H109.132V240.134V241.134H224.871V240.134ZM124.569 281L125.556 281.162L150.613 128.435L149.626 128.273L148.639 128.111L123.582 280.838L124.569 281ZM149.626 128.273V129.273H167.523V128.273V127.273H149.626V128.273ZM167.523 128.273L166.537 128.111L141.48 280.838L142.467 281L143.453 281.162L168.51 128.435L167.523 128.273ZM142.467 281V280H124.569V281V282H142.467V281ZM118.006 187.037L118.993 187.197L121.902 169.3L120.915 169.139L119.928 168.979L117.019 186.877L118.006 187.037ZM120.915 169.139V170.139H236.653V169.139V168.139H120.915V169.139ZM236.653 169.139L235.666 168.979L232.758 186.877L233.745 187.037L234.732 187.197L237.64 169.3L236.653 169.139ZM233.745 187.037V186.037H118.006V187.037V188.037H233.745V187.037Z" fill="black" fill-opacity="0.33" mask="url(#path-8-inside-1_15_21)"/>
</g>
<g filter="url(#filter3_dddd_15_21)">
<mask id="path-10-inside-2_15_21" fill="white">
<path d="M194.591 322.909V352H191.182L175.33 329.159H175.045V352H171.523V322.909H174.932L190.841 345.807H191.125V322.909H194.591ZM207.606 352.511C206.223 352.511 204.969 352.251 203.842 351.73C202.715 351.2 201.82 350.438 201.157 349.443C200.494 348.439 200.163 347.227 200.163 345.807C200.163 344.557 200.409 343.544 200.901 342.767C201.394 341.981 202.052 341.366 202.876 340.92C203.7 340.475 204.609 340.144 205.603 339.926C206.607 339.699 207.615 339.519 208.629 339.386C209.954 339.216 211.029 339.088 211.853 339.003C212.686 338.908 213.292 338.752 213.671 338.534C214.059 338.316 214.254 337.937 214.254 337.398V337.284C214.254 335.883 213.87 334.794 213.103 334.017C212.345 333.241 211.195 332.852 209.651 332.852C208.051 332.852 206.796 333.203 205.887 333.903C204.978 334.604 204.339 335.352 203.969 336.148L200.788 335.011C201.356 333.686 202.113 332.653 203.06 331.915C204.017 331.167 205.058 330.646 206.185 330.352C207.322 330.049 208.439 329.898 209.538 329.898C210.238 329.898 211.043 329.983 211.952 330.153C212.871 330.314 213.756 330.651 214.609 331.162C215.47 331.673 216.185 332.445 216.754 333.477C217.322 334.509 217.606 335.892 217.606 337.625V352H214.254V349.045H214.083C213.856 349.519 213.477 350.026 212.947 350.565C212.416 351.105 211.711 351.564 210.83 351.943C209.95 352.322 208.875 352.511 207.606 352.511ZM208.117 349.5C209.443 349.5 210.56 349.24 211.469 348.719C212.388 348.198 213.079 347.526 213.543 346.702C214.017 345.878 214.254 345.011 214.254 344.102V341.034C214.112 341.205 213.799 341.361 213.316 341.503C212.843 341.635 212.293 341.754 211.668 341.858C211.053 341.953 210.451 342.038 209.864 342.114C209.287 342.18 208.818 342.237 208.458 342.284C207.587 342.398 206.772 342.582 206.015 342.838C205.267 343.084 204.661 343.458 204.197 343.96C203.742 344.453 203.515 345.125 203.515 345.977C203.515 347.142 203.946 348.023 204.808 348.619C205.679 349.206 206.782 349.5 208.117 349.5ZM223.724 352V330.182H227.077V352H223.724ZM225.429 326.545C224.776 326.545 224.212 326.323 223.739 325.878C223.275 325.433 223.043 324.898 223.043 324.273C223.043 323.648 223.275 323.113 223.739 322.668C224.212 322.223 224.776 322 225.429 322C226.082 322 226.641 322.223 227.105 322.668C227.579 323.113 227.815 323.648 227.815 324.273C227.815 324.898 227.579 325.433 227.105 325.878C226.641 326.323 226.082 326.545 225.429 326.545ZM251.058 330.182L242.989 352H239.58L231.512 330.182H235.148L241.171 347.568H241.398L247.421 330.182H251.058ZM263.849 352.455C261.746 352.455 259.933 351.991 258.408 351.062C256.893 350.125 255.724 348.818 254.9 347.142C254.085 345.456 253.678 343.496 253.678 341.261C253.678 339.027 254.085 337.057 254.9 335.352C255.724 333.638 256.87 332.303 258.337 331.347C259.815 330.381 261.538 329.898 263.508 329.898C264.644 329.898 265.766 330.087 266.874 330.466C267.982 330.845 268.991 331.46 269.9 332.312C270.809 333.155 271.533 334.273 272.073 335.665C272.613 337.057 272.883 338.771 272.883 340.807V342.227H256.065V339.33H269.474C269.474 338.098 269.228 337 268.735 336.034C268.252 335.068 267.561 334.306 266.661 333.747C265.771 333.188 264.72 332.909 263.508 332.909C262.173 332.909 261.017 333.241 260.042 333.903C259.076 334.557 258.333 335.409 257.812 336.46C257.291 337.511 257.031 338.638 257.031 339.841V341.773C257.031 343.42 257.315 344.817 257.883 345.963C258.46 347.099 259.261 347.966 260.283 348.562C261.306 349.15 262.495 349.443 263.849 349.443C264.729 349.443 265.525 349.32 266.235 349.074C266.955 348.818 267.575 348.439 268.096 347.938C268.617 347.426 269.019 346.792 269.303 346.034L272.542 346.943C272.201 348.042 271.628 349.008 270.823 349.841C270.018 350.665 269.024 351.309 267.84 351.773C266.656 352.227 265.326 352.455 263.849 352.455ZM274.815 326.034V322.909H296.633V326.034H287.485V352H283.962V326.034H274.815ZM305.067 352.511C303.684 352.511 302.429 352.251 301.303 351.73C300.176 351.2 299.281 350.438 298.618 349.443C297.955 348.439 297.624 347.227 297.624 345.807C297.624 344.557 297.87 343.544 298.362 342.767C298.855 341.981 299.513 341.366 300.337 340.92C301.161 340.475 302.07 340.144 303.064 339.926C304.068 339.699 305.076 339.519 306.089 339.386C307.415 339.216 308.49 339.088 309.314 339.003C310.147 338.908 310.753 338.752 311.132 338.534C311.52 338.316 311.714 337.937 311.714 337.398V337.284C311.714 335.883 311.331 334.794 310.564 334.017C309.806 333.241 308.656 332.852 307.112 332.852C305.512 332.852 304.257 333.203 303.348 333.903C302.439 334.604 301.8 335.352 301.43 336.148L298.249 335.011C298.817 333.686 299.574 332.653 300.521 331.915C301.478 331.167 302.519 330.646 303.646 330.352C304.783 330.049 305.9 329.898 306.999 329.898C307.699 329.898 308.504 329.983 309.413 330.153C310.332 330.314 311.217 330.651 312.07 331.162C312.931 331.673 313.646 332.445 314.214 333.477C314.783 334.509 315.067 335.892 315.067 337.625V352H311.714V349.045H311.544C311.317 349.519 310.938 350.026 310.408 350.565C309.877 351.105 309.172 351.564 308.291 351.943C307.411 352.322 306.336 352.511 305.067 352.511ZM305.578 349.5C306.904 349.5 308.021 349.24 308.93 348.719C309.849 348.198 310.54 347.526 311.004 346.702C311.478 345.878 311.714 345.011 311.714 344.102V341.034C311.572 341.205 311.26 341.361 310.777 341.503C310.304 341.635 309.754 341.754 309.129 341.858C308.514 341.953 307.912 342.038 307.325 342.114C306.748 342.18 306.279 342.237 305.919 342.284C305.048 342.398 304.233 342.582 303.476 342.838C302.728 343.084 302.122 343.458 301.658 343.96C301.203 344.453 300.976 345.125 300.976 345.977C300.976 347.142 301.407 348.023 302.268 348.619C303.14 349.206 304.243 349.5 305.578 349.5ZM321.64 352V322.909H324.992V333.648H325.276C325.522 333.269 325.863 332.786 326.299 332.199C326.744 331.602 327.379 331.072 328.202 330.608C329.036 330.134 330.163 329.898 331.583 329.898C333.42 329.898 335.04 330.357 336.441 331.276C337.843 332.194 338.936 333.496 339.722 335.182C340.508 336.867 340.901 338.856 340.901 341.148C340.901 343.458 340.508 345.461 339.722 347.156C338.936 348.842 337.847 350.149 336.455 351.077C335.063 351.995 333.458 352.455 331.64 352.455C330.238 352.455 329.116 352.223 328.273 351.759C327.431 351.285 326.782 350.75 326.327 350.153C325.873 349.547 325.522 349.045 325.276 348.648H324.879V352H321.64ZM324.935 341.091C324.935 342.739 325.177 344.192 325.66 345.452C326.143 346.702 326.848 347.682 327.776 348.392C328.704 349.093 329.841 349.443 331.185 349.443C332.587 349.443 333.756 349.074 334.694 348.335C335.641 347.587 336.351 346.583 336.825 345.324C337.308 344.055 337.549 342.644 337.549 341.091C337.549 339.557 337.312 338.174 336.839 336.943C336.375 335.703 335.669 334.723 334.722 334.003C333.785 333.274 332.606 332.909 331.185 332.909C329.822 332.909 328.676 333.255 327.748 333.946C326.82 334.628 326.119 335.584 325.646 336.815C325.172 338.037 324.935 339.462 324.935 341.091Z"/>
</mask>
<path d="M194.591 322.909V352H191.182L175.33 329.159H175.045V352H171.523V322.909H174.932L190.841 345.807H191.125V322.909H194.591ZM207.606 352.511C206.223 352.511 204.969 352.251 203.842 351.73C202.715 351.2 201.82 350.438 201.157 349.443C200.494 348.439 200.163 347.227 200.163 345.807C200.163 344.557 200.409 343.544 200.901 342.767C201.394 341.981 202.052 341.366 202.876 340.92C203.7 340.475 204.609 340.144 205.603 339.926C206.607 339.699 207.615 339.519 208.629 339.386C209.954 339.216 211.029 339.088 211.853 339.003C212.686 338.908 213.292 338.752 213.671 338.534C214.059 338.316 214.254 337.937 214.254 337.398V337.284C214.254 335.883 213.87 334.794 213.103 334.017C212.345 333.241 211.195 332.852 209.651 332.852C208.051 332.852 206.796 333.203 205.887 333.903C204.978 334.604 204.339 335.352 203.969 336.148L200.788 335.011C201.356 333.686 202.113 332.653 203.06 331.915C204.017 331.167 205.058 330.646 206.185 330.352C207.322 330.049 208.439 329.898 209.538 329.898C210.238 329.898 211.043 329.983 211.952 330.153C212.871 330.314 213.756 330.651 214.609 331.162C215.47 331.673 216.185 332.445 216.754 333.477C217.322 334.509 217.606 335.892 217.606 337.625V352H214.254V349.045H214.083C213.856 349.519 213.477 350.026 212.947 350.565C212.416 351.105 211.711 351.564 210.83 351.943C209.95 352.322 208.875 352.511 207.606 352.511ZM208.117 349.5C209.443 349.5 210.56 349.24 211.469 348.719C212.388 348.198 213.079 347.526 213.543 346.702C214.017 345.878 214.254 345.011 214.254 344.102V341.034C214.112 341.205 213.799 341.361 213.316 341.503C212.843 341.635 212.293 341.754 211.668 341.858C211.053 341.953 210.451 342.038 209.864 342.114C209.287 342.18 208.818 342.237 208.458 342.284C207.587 342.398 206.772 342.582 206.015 342.838C205.267 343.084 204.661 343.458 204.197 343.96C203.742 344.453 203.515 345.125 203.515 345.977C203.515 347.142 203.946 348.023 204.808 348.619C205.679 349.206 206.782 349.5 208.117 349.5ZM223.724 352V330.182H227.077V352H223.724ZM225.429 326.545C224.776 326.545 224.212 326.323 223.739 325.878C223.275 325.433 223.043 324.898 223.043 324.273C223.043 323.648 223.275 323.113 223.739 322.668C224.212 322.223 224.776 322 225.429 322C226.082 322 226.641 322.223 227.105 322.668C227.579 323.113 227.815 323.648 227.815 324.273C227.815 324.898 227.579 325.433 227.105 325.878C226.641 326.323 226.082 326.545 225.429 326.545ZM251.058 330.182L242.989 352H239.58L231.512 330.182H235.148L241.171 347.568H241.398L247.421 330.182H251.058ZM263.849 352.455C261.746 352.455 259.933 351.991 258.408 351.062C256.893 350.125 255.724 348.818 254.9 347.142C254.085 345.456 253.678 343.496 253.678 341.261C253.678 339.027 254.085 337.057 254.9 335.352C255.724 333.638 256.87 332.303 258.337 331.347C259.815 330.381 261.538 329.898 263.508 329.898C264.644 329.898 265.766 330.087 266.874 330.466C267.982 330.845 268.991 331.46 269.9 332.312C270.809 333.155 271.533 334.273 272.073 335.665C272.613 337.057 272.883 338.771 272.883 340.807V342.227H256.065V339.33H269.474C269.474 338.098 269.228 337 268.735 336.034C268.252 335.068 267.561 334.306 266.661 333.747C265.771 333.188 264.72 332.909 263.508 332.909C262.173 332.909 261.017 333.241 260.042 333.903C259.076 334.557 258.333 335.409 257.812 336.46C257.291 337.511 257.031 338.638 257.031 339.841V341.773C257.031 343.42 257.315 344.817 257.883 345.963C258.46 347.099 259.261 347.966 260.283 348.562C261.306 349.15 262.495 349.443 263.849 349.443C264.729 349.443 265.525 349.32 266.235 349.074C266.955 348.818 267.575 348.439 268.096 347.938C268.617 347.426 269.019 346.792 269.303 346.034L272.542 346.943C272.201 348.042 271.628 349.008 270.823 349.841C270.018 350.665 269.024 351.309 267.84 351.773C266.656 352.227 265.326 352.455 263.849 352.455ZM274.815 326.034V322.909H296.633V326.034H287.485V352H283.962V326.034H274.815ZM305.067 352.511C303.684 352.511 302.429 352.251 301.303 351.73C300.176 351.2 299.281 350.438 298.618 349.443C297.955 348.439 297.624 347.227 297.624 345.807C297.624 344.557 297.87 343.544 298.362 342.767C298.855 341.981 299.513 341.366 300.337 340.92C301.161 340.475 302.07 340.144 303.064 339.926C304.068 339.699 305.076 339.519 306.089 339.386C307.415 339.216 308.49 339.088 309.314 339.003C310.147 338.908 310.753 338.752 311.132 338.534C311.52 338.316 311.714 337.937 311.714 337.398V337.284C311.714 335.883 311.331 334.794 310.564 334.017C309.806 333.241 308.656 332.852 307.112 332.852C305.512 332.852 304.257 333.203 303.348 333.903C302.439 334.604 301.8 335.352 301.43 336.148L298.249 335.011C298.817 333.686 299.574 332.653 300.521 331.915C301.478 331.167 302.519 330.646 303.646 330.352C304.783 330.049 305.9 329.898 306.999 329.898C307.699 329.898 308.504 329.983 309.413 330.153C310.332 330.314 311.217 330.651 312.07 331.162C312.931 331.673 313.646 332.445 314.214 333.477C314.783 334.509 315.067 335.892 315.067 337.625V352H311.714V349.045H311.544C311.317 349.519 310.938 350.026 310.408 350.565C309.877 351.105 309.172 351.564 308.291 351.943C307.411 352.322 306.336 352.511 305.067 352.511ZM305.578 349.5C306.904 349.5 308.021 349.24 308.93 348.719C309.849 348.198 310.54 347.526 311.004 346.702C311.478 345.878 311.714 345.011 311.714 344.102V341.034C311.572 341.205 311.26 341.361 310.777 341.503C310.304 341.635 309.754 341.754 309.129 341.858C308.514 341.953 307.912 342.038 307.325 342.114C306.748 342.18 306.279 342.237 305.919 342.284C305.048 342.398 304.233 342.582 303.476 342.838C302.728 343.084 302.122 343.458 301.658 343.96C301.203 344.453 300.976 345.125 300.976 345.977C300.976 347.142 301.407 348.023 302.268 348.619C303.14 349.206 304.243 349.5 305.578 349.5ZM321.64 352V322.909H324.992V333.648H325.276C325.522 333.269 325.863 332.786 326.299 332.199C326.744 331.602 327.379 331.072 328.202 330.608C329.036 330.134 330.163 329.898 331.583 329.898C333.42 329.898 335.04 330.357 336.441 331.276C337.843 332.194 338.936 333.496 339.722 335.182C340.508 336.867 340.901 338.856 340.901 341.148C340.901 343.458 340.508 345.461 339.722 347.156C338.936 348.842 337.847 350.149 336.455 351.077C335.063 351.995 333.458 352.455 331.64 352.455C330.238 352.455 329.116 352.223 328.273 351.759C327.431 351.285 326.782 350.75 326.327 350.153C325.873 349.547 325.522 349.045 325.276 348.648H324.879V352H321.64ZM324.935 341.091C324.935 342.739 325.177 344.192 325.66 345.452C326.143 346.702 326.848 347.682 327.776 348.392C328.704 349.093 329.841 349.443 331.185 349.443C332.587 349.443 333.756 349.074 334.694 348.335C335.641 347.587 336.351 346.583 336.825 345.324C337.308 344.055 337.549 342.644 337.549 341.091C337.549 339.557 337.312 338.174 336.839 336.943C336.375 335.703 335.669 334.723 334.722 334.003C333.785 333.274 332.606 332.909 331.185 332.909C329.822 332.909 328.676 333.255 327.748 333.946C326.82 334.628 326.119 335.584 325.646 336.815C325.172 338.037 324.935 339.462 324.935 341.091Z" fill="#929798"/>
<path d="M194.591 322.909H195.591V321.909H194.591V322.909ZM194.591 352V353H195.591V352H194.591ZM191.182 352L190.36 352.57L190.659 353H191.182V352ZM175.33 329.159L176.151 328.589L175.853 328.159H175.33V329.159ZM175.045 329.159V328.159H174.045V329.159H175.045ZM175.045 352V353H176.045V352H175.045ZM171.523 352H170.523V353H171.523V352ZM171.523 322.909V321.909H170.523V322.909H171.523ZM174.932 322.909L175.753 322.339L175.455 321.909H174.932V322.909ZM190.841 345.807L190.02 346.377L190.318 346.807H190.841V345.807ZM191.125 345.807V346.807H192.125V345.807H191.125ZM191.125 322.909V321.909H190.125V322.909H191.125ZM194.591 322.909H193.591V352H194.591H195.591V322.909H194.591ZM194.591 352V351H191.182V352V353H194.591V352ZM191.182 352L192.003 351.43L176.151 328.589L175.33 329.159L174.508 329.729L190.36 352.57L191.182 352ZM175.33 329.159V328.159H175.045V329.159V330.159H175.33V329.159ZM175.045 329.159H174.045V352H175.045H176.045V329.159H175.045ZM175.045 352V351H171.523V352V353H175.045V352ZM171.523 352H172.523V322.909H171.523H170.523V352H171.523ZM171.523 322.909V323.909H174.932V322.909V321.909H171.523V322.909ZM174.932 322.909L174.111 323.48L190.02 346.377L190.841 345.807L191.662 345.236L175.753 322.339L174.932 322.909ZM190.841 345.807V346.807H191.125V345.807V344.807H190.841V345.807ZM191.125 345.807H192.125V322.909H191.125H190.125V345.807H191.125ZM191.125 322.909V323.909H194.591V322.909V321.909H191.125V322.909ZM203.842 351.73L203.416 352.635L203.422 352.638L203.842 351.73ZM201.157 349.443L200.322 349.994L200.325 349.998L201.157 349.443ZM200.901 342.767L201.746 343.303L201.749 343.298L200.901 342.767ZM205.603 339.926L205.817 340.903L205.824 340.901L205.603 339.926ZM208.629 339.386L208.501 338.395L208.499 338.395L208.629 339.386ZM211.853 339.003L211.956 339.998L211.966 339.996L211.853 339.003ZM213.671 338.534L213.182 337.662L213.173 337.667L213.671 338.534ZM213.103 334.017L212.387 334.715L212.392 334.72L213.103 334.017ZM205.887 333.903L206.498 334.695V334.695L205.887 333.903ZM203.969 336.148L203.633 337.089L204.492 337.396L204.876 336.569L203.969 336.148ZM200.788 335.011L199.868 334.617L199.449 335.595L200.451 335.953L200.788 335.011ZM203.06 331.915L203.675 332.703L203.676 332.702L203.06 331.915ZM206.185 330.352L206.437 331.32L206.443 331.319L206.185 330.352ZM211.952 330.153L211.768 331.136L211.78 331.138L211.952 330.153ZM214.609 331.162L214.094 332.019L214.098 332.022L214.609 331.162ZM216.754 333.477L215.878 333.959H215.878L216.754 333.477ZM217.606 352V353H218.606V352H217.606ZM214.254 352H213.254V353H214.254V352ZM214.254 349.045H215.254V348.045H214.254V349.045ZM214.083 349.045V348.045H213.454L213.182 348.613L214.083 349.045ZM212.947 350.565L213.66 351.266H213.66L212.947 350.565ZM210.83 351.943L210.435 351.025V351.025L210.83 351.943ZM211.469 348.719L210.976 347.849L210.972 347.851L211.469 348.719ZM213.543 346.702L212.676 346.203L212.672 346.211L213.543 346.702ZM214.254 341.034H215.254V338.272L213.485 340.394L214.254 341.034ZM213.316 341.503L213.586 342.466L213.598 342.462L213.316 341.503ZM211.668 341.858L211.82 342.846L211.833 342.844L211.668 341.858ZM209.864 342.114L209.978 343.107L209.992 343.105L209.864 342.114ZM208.458 342.284L208.587 343.276L208.589 343.276L208.458 342.284ZM206.015 342.838L206.328 343.788L206.335 343.786L206.015 342.838ZM204.197 343.96L203.462 343.281L203.462 343.282L204.197 343.96ZM204.808 348.619L204.238 349.442L204.249 349.449L204.808 348.619ZM207.606 352.511V351.511C206.352 351.511 205.242 351.276 204.261 350.822L203.842 351.73L203.422 352.638C204.695 353.226 206.095 353.511 207.606 353.511V352.511ZM203.842 351.73L204.267 350.825C203.298 350.369 202.547 349.725 201.989 348.888L201.157 349.443L200.325 349.998C201.093 351.15 202.131 352.031 203.416 352.635L203.842 351.73ZM201.157 349.443L201.991 348.892C201.455 348.08 201.163 347.067 201.163 345.807H200.163H199.163C199.163 347.387 199.533 348.799 200.322 349.994L201.157 349.443ZM200.163 345.807H201.163C201.163 344.68 201.385 343.871 201.746 343.303L200.901 342.767L200.057 342.232C199.432 343.216 199.163 344.433 199.163 345.807H200.163ZM200.901 342.767L201.749 343.298C202.148 342.66 202.678 342.164 203.351 341.8L202.876 340.92L202.4 340.041C201.426 340.567 200.639 341.302 200.054 342.236L200.901 342.767ZM202.876 340.92L203.351 341.8C204.086 341.403 204.906 341.103 205.817 340.903L205.603 339.926L205.389 338.949C204.311 339.185 203.313 339.547 202.4 340.041L202.876 340.92ZM205.603 339.926L205.824 340.901C206.798 340.681 207.776 340.506 208.758 340.378L208.629 339.386L208.499 338.395C207.455 338.531 206.416 338.717 205.382 338.951L205.603 339.926ZM208.629 339.386L208.756 340.378C210.078 340.208 211.144 340.082 211.956 339.998L211.853 339.003L211.75 338.008C210.915 338.095 209.831 338.224 208.501 338.395L208.629 339.386ZM211.853 339.003L211.966 339.996C212.833 339.898 213.608 339.724 214.17 339.401L213.671 338.534L213.173 337.667C212.977 337.78 212.54 337.918 211.74 338.009L211.853 339.003ZM213.671 338.534L214.16 339.406C214.936 338.971 215.254 338.208 215.254 337.398H214.254H213.254C213.254 337.55 213.226 337.615 213.218 337.631C213.214 337.638 213.212 337.641 213.21 337.642C213.209 337.644 213.201 337.651 213.182 337.662L213.671 338.534ZM214.254 337.398H215.254V337.284H214.254H213.254V337.398H214.254ZM214.254 337.284H215.254C215.254 335.698 214.815 334.327 213.814 333.314L213.103 334.017L212.392 334.72C212.925 335.26 213.254 336.068 213.254 337.284H214.254ZM213.103 334.017L213.819 333.319C212.805 332.28 211.349 331.852 209.651 331.852V332.852V333.852C211.041 333.852 211.885 334.201 212.387 334.715L213.103 334.017ZM209.651 332.852V331.852C207.915 331.852 206.418 332.232 205.277 333.111L205.887 333.903L206.498 334.695C207.174 334.174 208.186 333.852 209.651 333.852V332.852ZM205.887 333.903L205.277 333.111C204.278 333.881 203.517 334.748 203.062 335.727L203.969 336.148L204.876 336.569C205.161 335.957 205.678 335.327 206.498 334.695L205.887 333.903ZM203.969 336.148L204.306 335.206L201.124 334.07L200.788 335.011L200.451 335.953L203.633 337.089L203.969 336.148ZM200.788 335.011L201.707 335.405C202.222 334.204 202.886 333.319 203.675 332.703L203.06 331.915L202.445 331.126C201.341 331.988 200.49 333.168 199.868 334.617L200.788 335.011ZM203.06 331.915L203.676 332.702C204.53 332.035 205.449 331.578 206.437 331.32L206.185 330.352L205.933 329.385C204.668 329.714 203.504 330.298 202.444 331.127L203.06 331.915ZM206.185 330.352L206.443 331.319C207.501 331.036 208.532 330.898 209.538 330.898V329.898V328.898C208.346 328.898 207.142 329.062 205.928 329.386L206.185 330.352ZM209.538 329.898V330.898C210.161 330.898 210.902 330.974 211.768 331.136L211.952 330.153L212.137 329.171C211.185 328.992 210.316 328.898 209.538 328.898V329.898ZM211.952 330.153L211.78 331.138C212.57 331.277 213.34 331.567 214.094 332.019L214.609 331.162L215.123 330.304C214.173 329.734 213.172 329.352 212.125 329.168L211.952 330.153ZM214.609 331.162L214.098 332.022C214.782 332.427 215.38 333.056 215.878 333.959L216.754 333.477L217.63 332.995C216.991 331.834 216.159 330.919 215.119 330.302L214.609 331.162ZM216.754 333.477L215.878 333.959C216.335 334.791 216.606 335.987 216.606 337.625H217.606H218.606C218.606 335.797 218.308 334.228 217.63 332.995L216.754 333.477ZM217.606 337.625H216.606V352H217.606H218.606V337.625H217.606ZM217.606 352V351H214.254V352V353H217.606V352ZM214.254 352H215.254V349.045H214.254H213.254V352H214.254ZM214.254 349.045V348.045H214.083V349.045V350.045H214.254V349.045ZM214.083 349.045L213.182 348.613C213.018 348.954 212.718 349.372 212.233 349.865L212.947 350.565L213.66 351.266C214.236 350.679 214.694 350.084 214.985 349.478L214.083 349.045ZM212.947 350.565L212.233 349.865C211.815 350.291 211.227 350.684 210.435 351.025L210.83 351.943L211.225 352.862C212.195 352.445 213.018 351.92 213.66 351.266L212.947 350.565ZM210.83 351.943L210.435 351.025C209.713 351.335 208.781 351.511 207.606 351.511V352.511V353.511C208.969 353.511 210.187 353.309 211.225 352.862L210.83 351.943ZM208.117 349.5V350.5C209.572 350.5 210.871 350.214 211.967 349.586L211.469 348.719L210.972 347.851C210.25 348.265 209.314 348.5 208.117 348.5V349.5ZM211.469 348.719L211.963 349.589C213.02 348.989 213.851 348.193 214.415 347.192L213.543 346.702L212.672 346.211C212.307 346.858 211.756 347.407 210.976 347.849L211.469 348.719ZM213.543 346.702L214.41 347.2C214.967 346.232 215.254 345.194 215.254 344.102H214.254H213.254C213.254 344.828 213.067 345.524 212.676 346.203L213.543 346.702ZM214.254 344.102H215.254V341.034H214.254H213.254V344.102H214.254ZM214.254 341.034L213.485 340.394C213.539 340.33 213.561 340.337 213.465 340.385C213.38 340.428 213.241 340.483 213.034 340.543L213.316 341.503L213.598 342.462C213.874 342.381 214.133 342.287 214.36 342.174C214.576 342.065 214.826 341.909 215.022 341.674L214.254 341.034ZM213.316 341.503L213.046 340.54C212.616 340.66 212.103 340.772 211.504 340.872L211.668 341.858L211.833 342.844C212.484 342.736 213.069 342.61 213.586 342.466L213.316 341.503ZM211.668 341.858L211.516 340.87C210.908 340.963 210.315 341.047 209.736 341.122L209.864 342.114L209.992 343.105C210.588 343.029 211.197 342.942 211.82 342.846L211.668 341.858ZM209.864 342.114L209.75 341.12C209.17 341.187 208.695 341.244 208.328 341.293L208.458 342.284L208.589 343.276C208.941 343.229 209.403 343.173 209.978 343.107L209.864 342.114ZM208.458 342.284L208.329 341.292C207.399 341.414 206.52 341.612 205.695 341.891L206.015 342.838L206.335 343.786C207.025 343.553 207.775 343.382 208.587 343.276L208.458 342.284ZM206.015 342.838L205.702 341.888C204.818 342.179 204.058 342.637 203.462 343.281L204.197 343.96L204.931 344.639C205.263 344.28 205.716 343.989 206.328 343.788L206.015 342.838ZM204.197 343.96L203.462 343.282C202.794 344.005 202.515 344.944 202.515 345.977H203.515H204.515C204.515 345.306 204.69 344.9 204.932 344.639L204.197 343.96ZM203.515 345.977H202.515C202.515 347.428 203.074 348.635 204.238 349.442L204.808 348.619L205.377 347.797C204.818 347.41 204.515 346.857 204.515 345.977H203.515ZM204.808 348.619L204.249 349.449C205.325 350.174 206.637 350.5 208.117 350.5V349.5V348.5C206.927 348.5 206.033 348.239 205.366 347.79L204.808 348.619ZM223.724 352H222.724V353H223.724V352ZM223.724 330.182V329.182H222.724V330.182H223.724ZM227.077 330.182H228.077V329.182H227.077V330.182ZM227.077 352V353H228.077V352H227.077ZM223.739 325.878L223.046 326.6L223.054 326.606L223.739 325.878ZM223.739 322.668L223.054 321.939L223.046 321.946L223.739 322.668ZM227.105 322.668L226.413 323.389L226.42 323.396L227.105 322.668ZM227.105 325.878L226.42 325.149L226.413 325.156L227.105 325.878ZM223.724 352H224.724V330.182H223.724H222.724V352H223.724ZM223.724 330.182V331.182H227.077V330.182V329.182H223.724V330.182ZM227.077 330.182H226.077V352H227.077H228.077V330.182H227.077ZM227.077 352V351H223.724V352V353H227.077V352ZM225.429 326.545V325.545C225.029 325.545 224.71 325.419 224.424 325.149L223.739 325.878L223.054 326.606C223.714 327.227 224.523 327.545 225.429 327.545V326.545ZM223.739 325.878L224.431 325.156C224.157 324.894 224.043 324.617 224.043 324.273H223.043H222.043C222.043 325.179 222.392 325.972 223.046 326.6L223.739 325.878ZM223.043 324.273H224.043C224.043 323.929 224.157 323.652 224.431 323.389L223.739 322.668L223.046 321.946C222.392 322.573 222.043 323.367 222.043 324.273H223.043ZM223.739 322.668L224.424 323.396C224.71 323.127 225.029 323 225.429 323V322V321C224.523 321 223.714 321.319 223.054 321.939L223.739 322.668ZM225.429 322V323C225.829 323 226.138 323.126 226.413 323.389L227.105 322.668L227.797 321.946C227.144 321.319 226.336 321 225.429 321V322ZM227.105 322.668L226.42 323.396C226.702 323.661 226.815 323.936 226.815 324.273H227.815H228.815C228.815 323.36 228.456 322.565 227.79 321.939L227.105 322.668ZM227.815 324.273H226.815C226.815 324.61 226.702 324.885 226.42 325.149L227.105 325.878L227.79 326.606C228.456 325.981 228.815 325.186 228.815 324.273H227.815ZM227.105 325.878L226.413 325.156C226.138 325.419 225.829 325.545 225.429 325.545V326.545V327.545C226.336 327.545 227.144 327.226 227.797 326.6L227.105 325.878ZM251.058 330.182L251.995 330.529L252.493 329.182H251.058V330.182ZM242.989 352V353H243.686L243.927 352.347L242.989 352ZM239.58 352L238.642 352.347L238.884 353H239.58V352ZM231.512 330.182V329.182H230.076L230.574 330.529L231.512 330.182ZM235.148 330.182L236.093 329.854L235.86 329.182H235.148V330.182ZM241.171 347.568L240.226 347.896L240.459 348.568H241.171V347.568ZM241.398 347.568V348.568H242.11L242.343 347.896L241.398 347.568ZM247.421 330.182V329.182H246.709L246.476 329.854L247.421 330.182ZM251.058 330.182L250.12 329.835L242.051 351.653L242.989 352L243.927 352.347L251.995 330.529L251.058 330.182ZM242.989 352V351H239.58V352V353H242.989V352ZM239.58 352L240.518 351.653L232.45 329.835L231.512 330.182L230.574 330.529L238.642 352.347L239.58 352ZM231.512 330.182V331.182H235.148V330.182V329.182H231.512V330.182ZM235.148 330.182L234.204 330.509L240.226 347.896L241.171 347.568L242.116 347.241L236.093 329.854L235.148 330.182ZM241.171 347.568V348.568H241.398V347.568V346.568H241.171V347.568ZM241.398 347.568L242.343 347.896L248.366 330.509L247.421 330.182L246.476 329.854L240.454 347.241L241.398 347.568ZM247.421 330.182V331.182H251.058V330.182V329.182H247.421V330.182ZM258.408 351.062L257.882 351.913L257.888 351.917L258.408 351.062ZM254.9 347.142L253.999 347.577L254.002 347.583L254.9 347.142ZM254.9 335.352L253.999 334.919L253.998 334.921L254.9 335.352ZM258.337 331.347L258.883 332.184L258.885 332.184L258.337 331.347ZM266.874 330.466L267.198 329.52V329.52L266.874 330.466ZM269.9 332.312L269.216 333.042L269.22 333.046L269.9 332.312ZM272.073 335.665L273.006 335.303V335.303L272.073 335.665ZM272.883 342.227V343.227H273.883V342.227H272.883ZM256.065 342.227H255.065V343.227H256.065V342.227ZM256.065 339.33V338.33H255.065V339.33H256.065ZM269.474 339.33V340.33H270.474V339.33H269.474ZM268.735 336.034L267.841 336.481L267.844 336.488L268.735 336.034ZM266.661 333.747L266.13 334.594L266.134 334.597L266.661 333.747ZM260.042 333.903L260.602 334.732L260.604 334.73L260.042 333.903ZM257.812 336.46L256.916 336.016V336.016L257.812 336.46ZM257.883 345.963L256.987 346.407L256.991 346.416L257.883 345.963ZM260.283 348.562L259.779 349.426L259.786 349.43L260.283 348.562ZM266.235 349.074L266.563 350.019L266.57 350.016L266.235 349.074ZM268.096 347.938L268.79 348.658L268.796 348.651L268.096 347.938ZM269.303 346.034L269.574 345.071L268.689 344.823L268.367 345.683L269.303 346.034ZM272.542 346.943L273.497 347.24L273.802 346.258L272.812 345.98L272.542 346.943ZM270.823 349.841L271.538 350.54L271.542 350.536L270.823 349.841ZM267.84 351.773L268.199 352.706L268.205 352.704L267.84 351.773ZM263.849 352.455V351.455C261.897 351.455 260.27 351.025 258.928 350.208L258.408 351.062L257.888 351.917C259.596 352.956 261.596 353.455 263.849 353.455V352.455ZM258.408 351.062L258.935 350.212C257.587 349.378 256.542 348.217 255.797 346.701L254.9 347.142L254.002 347.583C254.905 349.419 256.199 350.872 257.882 351.913L258.408 351.062ZM254.9 347.142L255.8 346.707C255.063 345.181 254.678 343.374 254.678 341.261H253.678H252.678C252.678 343.618 253.108 345.732 253.999 347.577L254.9 347.142ZM253.678 341.261H254.678C254.678 339.149 255.063 337.331 255.802 335.783L254.9 335.352L253.998 334.921C253.108 336.783 252.678 338.904 252.678 341.261H253.678ZM254.9 335.352L255.801 335.785C256.553 334.222 257.582 333.033 258.883 332.184L258.337 331.347L257.791 330.509C256.157 331.574 254.895 333.055 253.999 334.919L254.9 335.352ZM258.337 331.347L258.885 332.184C260.181 331.336 261.709 330.898 263.508 330.898V329.898V328.898C261.367 328.898 259.449 329.425 257.79 330.51L258.337 331.347ZM263.508 329.898V330.898C264.531 330.898 265.544 331.068 266.551 331.412L266.874 330.466L267.198 329.52C265.989 329.106 264.758 328.898 263.508 328.898V329.898ZM266.874 330.466L266.551 331.412C267.516 331.742 268.403 332.28 269.216 333.042L269.9 332.312L270.584 331.583C269.578 330.64 268.448 329.947 267.198 329.52L266.874 330.466ZM269.9 332.312L269.22 333.046C269.997 333.767 270.645 334.747 271.141 336.026L272.073 335.665L273.006 335.303C272.422 333.798 271.621 332.544 270.58 331.579L269.9 332.312ZM272.073 335.665L271.141 336.026C271.623 337.269 271.883 338.852 271.883 340.807H272.883H273.883C273.883 338.689 273.603 336.844 273.006 335.303L272.073 335.665ZM272.883 340.807H271.883V342.227H272.883H273.883V340.807H272.883ZM272.883 342.227V341.227H256.065V342.227V343.227H272.883V342.227ZM256.065 342.227H257.065V339.33H256.065H255.065V342.227H256.065ZM256.065 339.33V340.33H269.474V339.33V338.33H256.065V339.33ZM269.474 339.33H270.474C270.474 337.962 270.199 336.704 269.626 335.58L268.735 336.034L267.844 336.488C268.256 337.296 268.474 338.235 268.474 339.33H269.474ZM268.735 336.034L269.63 335.587C269.066 334.459 268.249 333.556 267.189 332.898L266.661 333.747L266.134 334.597C266.873 335.056 267.439 335.677 267.841 336.481L268.735 336.034ZM266.661 333.747L267.193 332.9C266.12 332.227 264.879 331.909 263.508 331.909V332.909V333.909C264.561 333.909 265.422 334.15 266.13 334.594L266.661 333.747ZM263.508 332.909V331.909C262 331.909 260.642 332.286 259.48 333.076L260.042 333.903L260.604 334.73C261.392 334.195 262.346 333.909 263.508 333.909V332.909ZM260.042 333.903L259.482 333.075C258.372 333.826 257.513 334.811 256.916 336.016L257.812 336.46L258.708 336.904C259.152 336.007 259.78 335.288 260.602 334.732L260.042 333.903ZM257.812 336.46L256.916 336.016C256.325 337.209 256.031 338.488 256.031 339.841H257.031H258.031C258.031 338.788 258.257 337.814 258.708 336.904L257.812 336.46ZM257.031 339.841H256.031V341.773H257.031H258.031V339.841H257.031ZM257.031 341.773H256.031C256.031 343.532 256.333 345.089 256.987 346.407L257.883 345.963L258.779 345.519C258.296 344.545 258.031 343.309 258.031 341.773H257.031ZM257.883 345.963L256.991 346.416C257.649 347.71 258.578 348.725 259.78 349.426L260.283 348.562L260.787 347.699C259.943 347.206 259.272 346.489 258.774 345.51L257.883 345.963ZM260.283 348.562L259.786 349.43C260.981 350.116 262.346 350.443 263.849 350.443V349.443V348.443C262.643 348.443 261.631 348.183 260.781 347.695L260.283 348.562ZM263.849 349.443V350.443C264.822 350.443 265.731 350.307 266.563 350.019L266.235 349.074L265.908 348.129C265.319 348.333 264.637 348.443 263.849 348.443V349.443ZM266.235 349.074L266.57 350.016C267.416 349.716 268.161 349.264 268.79 348.658L268.096 347.938L267.402 347.217C266.989 347.615 266.494 347.921 265.9 348.132L266.235 349.074ZM268.096 347.938L268.796 348.651C269.432 348.027 269.91 347.264 270.24 346.385L269.303 346.034L268.367 345.683C268.128 346.319 267.801 346.825 267.395 347.224L268.096 347.938ZM269.303 346.034L269.033 346.997L272.272 347.906L272.542 346.943L272.812 345.98L269.574 345.071L269.303 346.034ZM272.542 346.943L271.587 346.647C271.293 347.595 270.801 348.424 270.104 349.146L270.823 349.841L271.542 350.536C272.455 349.591 273.109 348.489 273.497 347.24L272.542 346.943ZM270.823 349.841L270.108 349.142C269.412 349.855 268.541 350.424 267.475 350.842L267.84 351.773L268.205 352.704C269.507 352.193 270.625 351.475 271.538 350.54L270.823 349.841ZM267.84 351.773L267.482 350.839C266.43 351.243 265.223 351.455 263.849 351.455V352.455V353.455C265.429 353.455 266.883 353.211 268.199 352.706L267.84 351.773ZM274.815 326.034H273.815V327.034H274.815V326.034ZM274.815 322.909V321.909H273.815V322.909H274.815ZM296.633 322.909H297.633V321.909H296.633V322.909ZM296.633 326.034V327.034H297.633V326.034H296.633ZM287.485 326.034V325.034H286.485V326.034H287.485ZM287.485 352V353H288.485V352H287.485ZM283.962 352H282.962V353H283.962V352ZM283.962 326.034H284.962V325.034H283.962V326.034ZM274.815 326.034H275.815V322.909H274.815H273.815V326.034H274.815ZM274.815 322.909V323.909H296.633V322.909V321.909H274.815V322.909ZM296.633 322.909H295.633V326.034H296.633H297.633V322.909H296.633ZM296.633 326.034V325.034H287.485V326.034V327.034H296.633V326.034ZM287.485 326.034H286.485V352H287.485H288.485V326.034H287.485ZM287.485 352V351H283.962V352V353H287.485V352ZM283.962 352H284.962V326.034H283.962H282.962V352H283.962ZM283.962 326.034V325.034H274.815V326.034V327.034H283.962V326.034ZM301.303 351.73L300.877 352.635L300.883 352.638L301.303 351.73ZM298.618 349.443L297.783 349.994L297.786 349.998L298.618 349.443ZM298.362 342.767L299.207 343.303L299.21 343.298L298.362 342.767ZM303.064 339.926L303.278 340.903L303.285 340.901L303.064 339.926ZM306.089 339.386L305.962 338.395L305.96 338.395L306.089 339.386ZM309.314 339.003L309.417 339.998L309.427 339.996L309.314 339.003ZM311.132 338.534L310.643 337.662L310.634 337.667L311.132 338.534ZM310.564 334.017L309.848 334.715L309.852 334.72L310.564 334.017ZM303.348 333.903L303.959 334.695V334.695L303.348 333.903ZM301.43 336.148L301.094 337.089L301.953 337.396L302.337 336.569L301.43 336.148ZM298.249 335.011L297.329 334.617L296.91 335.595L297.912 335.953L298.249 335.011ZM300.521 331.915L301.136 332.703L301.137 332.702L300.521 331.915ZM303.646 330.352L303.898 331.32L303.904 331.319L303.646 330.352ZM309.413 330.153L309.229 331.136L309.241 331.138L309.413 330.153ZM312.07 331.162L311.555 332.019L311.559 332.022L312.07 331.162ZM314.214 333.477L313.338 333.959V333.959L314.214 333.477ZM315.067 352V353H316.067V352H315.067ZM311.714 352H310.714V353H311.714V352ZM311.714 349.045H312.714V348.045H311.714V349.045ZM311.544 349.045V348.045H310.915L310.643 348.613L311.544 349.045ZM310.408 350.565L311.121 351.266V351.266L310.408 350.565ZM308.291 351.943L307.896 351.025V351.025L308.291 351.943ZM308.93 348.719L308.437 347.849L308.433 347.851L308.93 348.719ZM311.004 346.702L310.137 346.203L310.133 346.211L311.004 346.702ZM311.714 341.034H312.714V338.272L310.946 340.394L311.714 341.034ZM310.777 341.503L311.047 342.466L311.059 342.462L310.777 341.503ZM309.129 341.858L309.281 342.846L309.294 342.844L309.129 341.858ZM307.325 342.114L307.439 343.107L307.453 343.105L307.325 342.114ZM305.919 342.284L306.048 343.276L306.049 343.276L305.919 342.284ZM303.476 342.838L303.788 343.788L303.796 343.786L303.476 342.838ZM301.658 343.96L300.923 343.281L300.923 343.282L301.658 343.96ZM302.268 348.619L301.699 349.442L301.71 349.449L302.268 348.619ZM305.067 352.511V351.511C303.812 351.511 302.703 351.276 301.722 350.822L301.303 351.73L300.883 352.638C302.156 353.226 303.556 353.511 305.067 353.511V352.511ZM301.303 351.73L301.728 350.825C300.759 350.369 300.007 349.725 299.45 348.888L298.618 349.443L297.786 349.998C298.554 351.15 299.592 352.031 300.877 352.635L301.303 351.73ZM298.618 349.443L299.452 348.892C298.916 348.08 298.624 347.067 298.624 345.807H297.624H296.624C296.624 347.387 296.994 348.799 297.783 349.994L298.618 349.443ZM297.624 345.807H298.624C298.624 344.68 298.846 343.871 299.207 343.303L298.362 342.767L297.518 342.232C296.893 343.216 296.624 344.433 296.624 345.807H297.624ZM298.362 342.767L299.21 343.298C299.609 342.66 300.139 342.164 300.812 341.8L300.337 340.92L299.861 340.041C298.887 340.567 298.1 341.302 297.515 342.236L298.362 342.767ZM300.337 340.92L300.812 341.8C301.547 341.403 302.367 341.103 303.278 340.903L303.064 339.926L302.85 338.949C301.772 339.185 300.774 339.547 299.861 340.041L300.337 340.92ZM303.064 339.926L303.285 340.901C304.259 340.681 305.237 340.506 306.219 340.378L306.089 339.386L305.96 338.395C304.916 338.531 303.877 338.717 302.843 338.951L303.064 339.926ZM306.089 339.386L306.217 340.378C307.539 340.208 308.605 340.082 309.417 339.998L309.314 339.003L309.211 338.008C308.376 338.095 307.292 338.224 305.962 338.395L306.089 339.386ZM309.314 339.003L309.427 339.996C310.294 339.898 311.068 339.724 311.631 339.401L311.132 338.534L310.634 337.667C310.438 337.78 310 337.918 309.201 338.009L309.314 339.003ZM311.132 338.534L311.621 339.406C312.397 338.971 312.714 338.208 312.714 337.398H311.714H310.714C310.714 337.55 310.687 337.615 310.679 337.631C310.675 337.638 310.673 337.641 310.671 337.642C310.67 337.644 310.662 337.651 310.643 337.662L311.132 338.534ZM311.714 337.398H312.714V337.284H311.714H310.714V337.398H311.714ZM311.714 337.284H312.714C312.714 335.698 312.276 334.327 311.275 333.314L310.564 334.017L309.852 334.72C310.386 335.26 310.714 336.068 310.714 337.284H311.714ZM310.564 334.017L311.28 333.319C310.266 332.28 308.81 331.852 307.112 331.852V332.852V333.852C308.502 333.852 309.346 334.201 309.848 334.715L310.564 334.017ZM307.112 332.852V331.852C305.376 331.852 303.879 332.232 302.738 333.111L303.348 333.903L303.959 334.695C304.635 334.174 305.647 333.852 307.112 333.852V332.852ZM303.348 333.903L302.738 333.111C301.739 333.881 300.978 334.748 300.523 335.727L301.43 336.148L302.337 336.569C302.621 335.957 303.139 335.327 303.959 334.695L303.348 333.903ZM301.43 336.148L301.767 335.206L298.585 334.07L298.249 335.011L297.912 335.953L301.094 337.089L301.43 336.148ZM298.249 335.011L299.168 335.405C299.683 334.204 300.347 333.319 301.136 332.703L300.521 331.915L299.906 331.126C298.802 331.988 297.951 333.168 297.329 334.617L298.249 335.011ZM300.521 331.915L301.137 332.702C301.991 332.035 302.91 331.578 303.898 331.32L303.646 330.352L303.394 329.385C302.129 329.714 300.965 330.298 299.905 331.127L300.521 331.915ZM303.646 330.352L303.904 331.319C304.962 331.036 305.993 330.898 306.999 330.898V329.898V328.898C305.807 328.898 304.603 329.062 303.389 329.386L303.646 330.352ZM306.999 329.898V330.898C307.622 330.898 308.363 330.974 309.229 331.136L309.413 330.153L309.598 329.171C308.646 328.992 307.777 328.898 306.999 328.898V329.898ZM309.413 330.153L309.241 331.138C310.031 331.277 310.801 331.567 311.555 332.019L312.07 331.162L312.584 330.304C311.634 329.734 310.633 329.352 309.586 329.168L309.413 330.153ZM312.07 331.162L311.559 332.022C312.242 332.427 312.841 333.056 313.338 333.959L314.214 333.477L315.091 332.995C314.452 331.834 313.62 330.919 312.58 330.302L312.07 331.162ZM314.214 333.477L313.338 333.959C313.796 334.791 314.067 335.987 314.067 337.625H315.067H316.067C316.067 335.797 315.769 334.228 315.091 332.995L314.214 333.477ZM315.067 337.625H314.067V352H315.067H316.067V337.625H315.067ZM315.067 352V351H311.714V352V353H315.067V352ZM311.714 352H312.714V349.045H311.714H310.714V352H311.714ZM311.714 349.045V348.045H311.544V349.045V350.045H311.714V349.045ZM311.544 349.045L310.643 348.613C310.479 348.954 310.179 349.372 309.694 349.865L310.408 350.565L311.121 351.266C311.697 350.679 312.155 350.084 312.446 349.478L311.544 349.045ZM310.408 350.565L309.694 349.865C309.276 350.291 308.688 350.684 307.896 351.025L308.291 351.943L308.686 352.862C309.656 352.445 310.479 351.92 311.121 351.266L310.408 350.565ZM308.291 351.943L307.896 351.025C307.174 351.335 306.242 351.511 305.067 351.511V352.511V353.511C306.43 353.511 307.647 353.309 308.686 352.862L308.291 351.943ZM305.578 349.5V350.5C307.033 350.5 308.332 350.214 309.428 349.586L308.93 348.719L308.433 347.851C307.711 348.265 306.775 348.5 305.578 348.5V349.5ZM308.93 348.719L309.424 349.589C310.481 348.989 311.312 348.193 311.876 347.192L311.004 346.702L310.133 346.211C309.768 346.858 309.217 347.407 308.437 347.849L308.93 348.719ZM311.004 346.702L311.871 347.2C312.428 346.232 312.714 345.194 312.714 344.102H311.714H310.714C310.714 344.828 310.528 345.524 310.137 346.203L311.004 346.702ZM311.714 344.102H312.714V341.034H311.714H310.714V344.102H311.714ZM311.714 341.034L310.946 340.394C311 340.33 311.022 340.337 310.926 340.385C310.841 340.428 310.702 340.483 310.495 340.543L310.777 341.503L311.059 342.462C311.335 342.381 311.594 342.287 311.821 342.174C312.037 342.065 312.287 341.909 312.483 341.674L311.714 341.034ZM310.777 341.503L310.507 340.54C310.077 340.66 309.564 340.772 308.965 340.872L309.129 341.858L309.294 342.844C309.945 342.736 310.53 342.61 311.047 342.466L310.777 341.503ZM309.129 341.858L308.977 340.87C308.369 340.963 307.776 341.047 307.197 341.122L307.325 342.114L307.453 343.105C308.049 343.029 308.658 342.942 309.281 342.846L309.129 341.858ZM307.325 342.114L307.211 341.12C306.631 341.187 306.156 341.244 305.789 341.293L305.919 342.284L306.049 343.276C306.402 343.229 306.864 343.173 307.439 343.107L307.325 342.114ZM305.919 342.284L305.79 341.292C304.86 341.414 303.981 341.612 303.156 341.891L303.476 342.838L303.796 343.786C304.486 343.553 305.236 343.382 306.048 343.276L305.919 342.284ZM303.476 342.838L303.163 341.888C302.279 342.179 301.519 342.637 300.923 343.281L301.658 343.96L302.392 344.639C302.724 344.28 303.177 343.989 303.788 343.788L303.476 342.838ZM301.658 343.96L300.923 343.282C300.255 344.005 299.976 344.944 299.976 345.977H300.976H301.976C301.976 345.306 302.151 344.9 302.392 344.639L301.658 343.96ZM300.976 345.977H299.976C299.976 347.428 300.534 348.635 301.699 349.442L302.268 348.619L302.838 347.797C302.279 347.41 301.976 346.857 301.976 345.977H300.976ZM302.268 348.619L301.71 349.449C302.786 350.174 304.098 350.5 305.578 350.5V349.5V348.5C304.388 348.5 303.494 348.239 302.827 347.79L302.268 348.619ZM321.64 352H320.64V353H321.64V352ZM321.64 322.909V321.909H320.64V322.909H321.64ZM324.992 322.909H325.992V321.909H324.992V322.909ZM324.992 333.648H323.992V334.648H324.992V333.648ZM325.276 333.648V334.648H325.819L326.115 334.193L325.276 333.648ZM326.299 332.199L325.497 331.601L325.496 331.603L326.299 332.199ZM328.202 330.608L328.693 331.479L328.696 331.477L328.202 330.608ZM336.441 331.276L336.989 330.439V330.439L336.441 331.276ZM339.722 347.156L340.629 347.579L340.63 347.577L339.722 347.156ZM336.455 351.077L337.006 351.911L337.01 351.909L336.455 351.077ZM328.273 351.759L327.784 352.63L327.791 352.635L328.273 351.759ZM326.327 350.153L325.527 350.753L325.532 350.759L326.327 350.153ZM325.276 348.648L326.127 348.121L325.833 347.648H325.276V348.648ZM324.879 348.648V347.648H323.879V348.648H324.879ZM324.879 352V353H325.879V352H324.879ZM325.66 345.452L324.726 345.81L324.727 345.812L325.66 345.452ZM327.776 348.392L327.169 349.186L327.174 349.19L327.776 348.392ZM334.694 348.335L335.313 349.121L335.314 349.12L334.694 348.335ZM336.825 345.324L335.89 344.968L335.889 344.972L336.825 345.324ZM336.839 336.943L335.902 337.294L335.905 337.302L336.839 336.943ZM334.722 334.003L334.108 334.792L334.117 334.799L334.722 334.003ZM327.748 333.946L328.34 334.752L328.345 334.748L327.748 333.946ZM325.646 336.815L326.578 337.177L326.579 337.174L325.646 336.815ZM321.64 352H322.64V322.909H321.64H320.64V352H321.64ZM321.64 322.909V323.909H324.992V322.909V321.909H321.64V322.909ZM324.992 322.909H323.992V333.648H324.992H325.992V322.909H324.992ZM324.992 333.648V334.648H325.276V333.648V332.648H324.992V333.648ZM325.276 333.648L326.115 334.193C326.345 333.838 326.672 333.374 327.102 332.795L326.299 332.199L325.496 331.603C325.055 332.198 324.7 332.699 324.438 333.103L325.276 333.648ZM326.299 332.199L327.101 332.797C327.443 332.338 327.959 331.893 328.693 331.479L328.202 330.608L327.712 329.737C326.798 330.251 326.045 330.867 325.497 331.601L326.299 332.199ZM328.202 330.608L328.696 331.477C329.324 331.121 330.258 330.898 331.583 330.898V329.898V328.898C330.067 328.898 328.748 329.148 327.708 329.738L328.202 330.608ZM331.583 329.898V330.898C333.245 330.898 334.67 331.31 335.893 332.112L336.441 331.276L336.989 330.439C335.409 329.404 333.595 328.898 331.583 328.898V329.898ZM336.441 331.276L335.893 332.112C337.122 332.918 338.1 334.068 338.816 335.604L339.722 335.182L340.629 334.759C339.773 332.924 338.563 331.471 336.989 330.439L336.441 331.276ZM339.722 335.182L338.816 335.604C339.528 337.131 339.901 338.969 339.901 341.148H340.901H341.901C341.901 338.743 341.489 336.604 340.629 334.759L339.722 335.182ZM340.901 341.148H339.901C339.901 343.347 339.527 345.2 338.815 346.736L339.722 347.156L340.63 347.577C341.489 345.723 341.901 343.57 341.901 341.148H340.901ZM339.722 347.156L338.816 346.734C338.099 348.272 337.123 349.429 335.901 350.245L336.455 351.077L337.01 351.909C338.571 350.868 339.774 349.412 340.629 347.579L339.722 347.156ZM336.455 351.077L335.904 350.242C334.691 351.043 333.281 351.455 331.64 351.455V352.455V353.455C333.635 353.455 335.436 352.947 337.006 351.911L336.455 351.077ZM331.64 352.455V351.455C330.335 351.455 329.399 351.236 328.756 350.883L328.273 351.759L327.791 352.635C328.834 353.209 330.142 353.455 331.64 353.455V352.455ZM328.273 351.759L328.763 350.887C328.006 350.462 327.475 350.009 327.123 349.547L326.327 350.153L325.532 350.759C326.089 351.491 326.855 352.109 327.784 352.63L328.273 351.759ZM326.327 350.153L327.127 349.553C326.681 348.959 326.351 348.483 326.127 348.121L325.276 348.648L324.426 349.174C324.694 349.608 325.064 350.136 325.527 350.753L326.327 350.153ZM325.276 348.648V347.648H324.879V348.648V349.648H325.276V348.648ZM324.879 348.648H323.879V352H324.879H325.879V348.648H324.879ZM324.879 352V351H321.64V352V353H324.879V352ZM324.935 341.091H323.935C323.935 342.835 324.191 344.414 324.726 345.81L325.66 345.452L326.594 345.094C326.163 343.971 325.935 342.643 325.935 341.091H324.935ZM325.66 345.452L324.727 345.812C325.266 347.208 326.074 348.348 327.169 349.186L327.776 348.392L328.384 347.598C327.623 347.015 327.019 346.195 326.593 345.091L325.66 345.452ZM327.776 348.392L327.174 349.19C328.302 350.042 329.659 350.443 331.185 350.443V349.443V348.443C330.023 348.443 329.107 348.144 328.379 347.594L327.776 348.392ZM331.185 349.443V350.443C332.771 350.443 334.169 350.022 335.313 349.121L334.694 348.335L334.075 347.55C333.343 348.126 332.403 348.443 331.185 348.443V349.443ZM334.694 348.335L335.314 349.12C336.42 348.246 337.231 347.085 337.761 345.676L336.825 345.324L335.889 344.972C335.472 346.081 334.862 346.928 334.074 347.551L334.694 348.335ZM336.825 345.324L337.759 345.68C338.291 344.282 338.549 342.748 338.549 341.091H337.549H336.549C336.549 342.54 336.324 343.828 335.89 344.968L336.825 345.324ZM337.549 341.091H338.549C338.549 339.454 338.296 337.947 337.772 336.584L336.839 336.943L335.905 337.302C336.328 338.402 336.549 339.66 336.549 341.091H337.549ZM336.839 336.943L337.775 336.593C337.253 335.196 336.441 334.053 335.327 333.207L334.722 334.003L334.117 334.799C334.897 335.392 335.497 336.209 335.902 337.294L336.839 336.943ZM334.722 334.003L335.336 333.213C334.191 332.322 332.783 331.909 331.185 331.909V332.909V333.909C332.429 333.909 333.379 334.225 334.108 334.792L334.722 334.003ZM331.185 332.909V331.909C329.646 331.909 328.28 332.302 327.15 333.144L327.748 333.946L328.345 334.748C329.071 334.207 329.997 333.909 331.185 333.909V332.909ZM327.748 333.946L327.156 333.14C326.052 333.951 325.244 335.073 324.712 336.456L325.646 336.815L326.579 337.174C326.994 336.095 327.588 335.305 328.34 334.752L327.748 333.946ZM325.646 336.815L324.713 336.454C324.186 337.815 323.935 339.368 323.935 341.091H324.935H325.935C325.935 339.557 326.159 338.259 326.578 337.177L325.646 336.815Z" fill="black" fill-opacity="0.33" mask="url(#path-10-inside-2_15_21)"/>
</g>
<defs>
<filter id="filter0_in_15_21" x="0" y="-1" width="512" height="482.882" filterUnits="userSpaceOnUse" color-interpolation-filters="sRGB">
<feFlood flood-opacity="0" result="BackgroundImageFix"/>
<feBlend mode="normal" in="SourceGraphic" in2="BackgroundImageFix" result="shape"/>
<feColorMatrix in="SourceAlpha" type="matrix" values="0 0 0 0 0 0 0 0 0 0 0 0 0 0 0 0 0 0 127 0" result="hardAlpha"/>
<feOffset dy="-1"/>
<feGaussianBlur stdDeviation="1.5"/>
<feComposite in2="hardAlpha" operator="arithmetic" k2="-1" k3="1"/>
<feColorMatrix type="matrix" values="0 0 0 0 1 0 0 0 0 1 0 0 0 0 1 0 0 0 1 0"/>
<feBlend mode="normal" in2="shape" result="effect1_innerShadow_15_21"/>
<feTurbulence type="fractalNoise" baseFrequency="2 2" stitchTiles="stitch" numOctaves="3" result="noise" seed="421" />
<feColorMatrix in="noise" type="luminanceToAlpha" result="alphaNoise" />
<feComponentTransfer in="alphaNoise" result="coloredNoise1">
<feFuncA type="discrete" tableValues="0 0 0 0 0 0 0 0 0 1 1 1 1 1 1 1 1 1 1 1 1 1 1 1 1 1 1 1 1 1 1 1 1 1 1 1 1 1 1 1 0 0 0 0 0 0 0 0 0 0 0 0 0 0 0 0 0 0 0 0 0 0 0 0 0 0 0 0 0 0 0 0 0 0 0 0 0 0 0 0 0 0 0 0 0 0 0 0 0 0 0 0 0 0 0 0 0 0 0 0 "/>
</feComponentTransfer>
<feComposite operator="in" in2="effect1_innerShadow_15_21" in="coloredNoise1" result="noise1Clipped" />
<feFlood flood-color="rgba(0, 0, 0, 0.2)" result="color1Flood" />
<feComposite operator="in" in2="noise1Clipped" in="color1Flood" result="color1" />
<feMerge result="effect2_noise_15_21">
<feMergeNode in="effect1_innerShadow_15_21" />
<feMergeNode in="color1" />
</feMerge>
</filter>
<filter id="filter1_n_15_21" x="57" y="49.3604" width="398.222" height="338.823" filterUnits="userSpaceOnUse" color-interpolation-filters="sRGB">
<feFlood flood-opacity="0" result="BackgroundImageFix"/>
<feBlend mode="normal" in="SourceGraphic" in2="BackgroundImageFix" result="shape"/>
<feTurbulence type="fractalNoise" baseFrequency="3.3333332538604736 3.3333332538604736" stitchTiles="stitch" numOctaves="3" result="noise" seed="421" />
<feColorMatrix in="noise" type="luminanceToAlpha" result="alphaNoise" />
<feComponentTransfer in="alphaNoise" result="coloredNoise1">
<feFuncA type="discrete" tableValues="0 0 0 0 0 0 0 0 0 0 0 0 1 1 1 1 1 1 1 1 1 1 1 1 1 1 1 1 1 1 1 1 1 1 1 1 1 1 0 0 0 0 0 0 0 0 0 0 0 0 0 0 0 0 0 0 0 0 0 0 0 0 0 0 0 0 0 0 0 0 0 0 0 0 0 0 0 0 0 0 0 0 0 0 0 0 0 0 0 0 0 0 0 0 0 0 0 0 0 0 "/>
</feComponentTransfer>
<feComposite operator="in" in2="shape" in="coloredNoise1" result="noise1Clipped" />
<feFlood flood-color="rgba(0, 0, 0, 0.25)" result="color1Flood" />
<feComposite operator="in" in2="noise1Clipped" in="color1Flood" result="color1" />
<feMerge result="effect1_noise_15_21">
<feMergeNode in="shape" />
<feMergeNode in="color1" />
</feMerge>
</filter>
<filter id="filter2_dddd_15_21" x="104.132" y="127.273" width="137.521" height="171.727" filterUnits="userSpaceOnUse" color-interpolation-filters="sRGB">
<feFlood flood-opacity="0" result="BackgroundImageFix"/>
<feColorMatrix in="SourceAlpha" type="matrix" values="0 0 0 0 0 0 0 0 0 0 0 0 0 0 0 0 0 0 127 0" result="hardAlpha"/>
<feOffset dy="1"/>
<feGaussianBlur stdDeviation="1"/>
<feColorMatrix type="matrix" values="0 0 0 0 0 0 0 0 0 0 0 0 0 0 0 0 0 0 0.1 0"/>
<feBlend mode="normal" in2="BackgroundImageFix" result="effect1_dropShadow_15_21"/>
<feColorMatrix in="SourceAlpha" type="matrix" values="0 0 0 0 0 0 0 0 0 0 0 0 0 0 0 0 0 0 127 0" result="hardAlpha"/>
<feOffset dy="3"/>
<feGaussianBlur stdDeviation="1.5"/>
<feColorMatrix type="matrix" values="0 0 0 0 0 0 0 0 0 0 0 0 0 0 0 0 0 0 0.09 0"/>
<feBlend mode="normal" in2="effect1_dropShadow_15_21" result="effect2_dropShadow_15_21"/>
<feColorMatrix in="SourceAlpha" type="matrix" values="0 0 0 0 0 0 0 0 0 0 0 0 0 0 0 0 0 0 127 0" result="hardAlpha"/>
<feOffset dy="7"/>
<feGaussianBlur stdDeviation="2"/>
<feColorMatrix type="matrix" values="0 0 0 0 0 0 0 0 0 0 0 0 0 0 0 0 0 0 0.05 0"/>
<feBlend mode="normal" in2="effect2_dropShadow_15_21" result="effect3_dropShadow_15_21"/>
<feColorMatrix in="SourceAlpha" type="matrix" values="0 0 0 0 0 0 0 0 0 0 0 0 0 0 0 0 0 0 127 0" result="hardAlpha"/>
<feOffset dy="13"/>
<feGaussianBlur stdDeviation="2.5"/>
<feColorMatrix type="matrix" values="0 0 0 0 0 0 0 0 0 0 0 0 0 0 0 0 0 0 0.01 0"/>
<feBlend mode="normal" in2="effect3_dropShadow_15_21" result="effect4_dropShadow_15_21"/>
<feBlend mode="normal" in="SourceGraphic" in2="effect4_dropShadow_15_21" result="shape"/>
</filter>
<filter id="filter3_dddd_15_21" x="166.523" y="321" width="179.379" height="49.5115" filterUnits="userSpaceOnUse" color-interpolation-filters="sRGB">
<feFlood flood-opacity="0" result="BackgroundImageFix"/>
<feColorMatrix in="SourceAlpha" type="matrix" values="0 0 0 0 0 0 0 0 0 0 0 0 0 0 0 0 0 0 127 0" result="hardAlpha"/>
<feOffset dy="1"/>
<feGaussianBlur stdDeviation="1"/>
<feColorMatrix type="matrix" values="0 0 0 0 0 0 0 0 0 0 0 0 0 0 0 0 0 0 0.1 0"/>
<feBlend mode="normal" in2="BackgroundImageFix" result="effect1_dropShadow_15_21"/>
<feColorMatrix in="SourceAlpha" type="matrix" values="0 0 0 0 0 0 0 0 0 0 0 0 0 0 0 0 0 0 127 0" result="hardAlpha"/>
<feOffset dy="3"/>
<feGaussianBlur stdDeviation="1.5"/>
<feColorMatrix type="matrix" values="0 0 0 0 0 0 0 0 0 0 0 0 0 0 0 0 0 0 0.09 0"/>
<feBlend mode="normal" in2="effect1_dropShadow_15_21" result="effect2_dropShadow_15_21"/>
<feColorMatrix in="SourceAlpha" type="matrix" values="0 0 0 0 0 0 0 0 0 0 0 0 0 0 0 0 0 0 127 0" result="hardAlpha"/>
<feOffset dy="7"/>
<feGaussianBlur stdDeviation="2"/>
<feColorMatrix type="matrix" values="0 0 0 0 0 0 0 0 0 0 0 0 0 0 0 0 0 0 0.05 0"/>
<feBlend mode="normal" in2="effect2_dropShadow_15_21" result="effect3_dropShadow_15_21"/>
<feColorMatrix in="SourceAlpha" type="matrix" values="0 0 0 0 0 0 0 0 0 0 0 0 0 0 0 0 0 0 127 0" result="hardAlpha"/>
<feOffset dy="13"/>
<feGaussianBlur stdDeviation="2.5"/>
<feColorMatrix type="matrix" values="0 0 0 0 0 0 0 0 0 0 0 0 0 0 0 0 0 0 0.01 0"/>
<feBlend mode="normal" in2="effect3_dropShadow_15_21" result="effect4_dropShadow_15_21"/>
<feBlend mode="normal" in="SourceGraphic" in2="effect4_dropShadow_15_21" result="shape"/>
</filter>
<linearGradient id="paint0_linear_15_21" x1="0" y1="256" x2="512" y2="256" gradientUnits="userSpaceOnUse">
<stop stop-color="#7C8288"/>
<stop offset="0.197115" stop-color="#4D5357"/>
<stop offset="0.75" stop-color="#54595D"/>
<stop offset="1" stop-color="#878C92"/>
</linearGradient>
<linearGradient id="paint1_linear_15_21" x1="0" y1="240.941" x2="512" y2="240.941" gradientUnits="userSpaceOnUse">
<stop stop-color="#C7C8CB"/>
<stop offset="1" stop-color="#88959F"/>
</linearGradient>
<linearGradient id="paint2_linear_15_21" x1="57" y1="237.596" x2="455.222" y2="237.596" gradientUnits="userSpaceOnUse">
<stop stop-color="#8F8F8F"/>
<stop offset="0.129808" stop-color="#626463"/>
<stop offset="0.89" stop-color="#535353"/>
<stop offset="1" stop-color="#8C8C8C"/>
</linearGradient>
<linearGradient id="paint3_linear_15_21" x1="57" y1="218.772" x2="455.222" y2="218.772" gradientUnits="userSpaceOnUse">
<stop stop-color="white" stop-opacity="0.8"/>
<stop offset="1" stop-color="white" stop-opacity="0.7"/>
</linearGradient>
</defs>
</svg>
