<?xml version="1.0" standalone="no"?>
<!DOCTYPE svg PUBLIC "-//W3C//DTD SVG 1.1//EN" "http://www.w3.org/Graphics/SVG/1.1/DTD/svg11.dtd">
<svg width="77.751571px" height="73.4041349px" viewBox="0 0 77.751571 73.4041349" version="1.1" xmlns="http://www.w3.org/2000/svg" xmlns:xlink="http://www.w3.org/1999/xlink">
    <defs>
        <linearGradient x1="0%" y1="100%" x2="0%" y2="0%" id="linearGradient-ns9-rlui36-1">
            <stop stop-color="#6E45E2" offset="0%"></stop>
            <stop stop-color="#88D3CE" offset="100%"></stop>
        </linearGradient>
    </defs>
    <g id="页面-1" stroke="none" stroke-width="1" fill="none" fill-rule="evenodd">
        <g id="icon" transform="translate(0, -0)" fill="url(#linearGradient-ns9-rlui36-1)" fill-rule="nonzero">
            <path
                d="M25.959864,4.19525215 C27.357204,5.70117712 29.4681451,6.31898601 31.4569228,5.80407568 L50.7716287,0.804075676 C50.9821944,0.762452375 51.1239515,0.564082426 51.0951246,0.351386827 C51.0662977,0.138691228 50.8768537,-0.0147906539 50.6628051,0.00113449942 L25.6951581,0.295252146 C25.1074141,0.295082081 24.5760133,0.644885361 24.3437949,1.18480909 C24.1115766,1.72473282 24.2231431,2.35107301 24.627511,2.77760509 L25.959864,4.19525215 Z M60.2039816,4.34819332 C59.9489159,3.51654783 59.3642413,2.82572785 58.5861962,2.4367053 C57.8081511,2.04768274 56.9046904,1.99443506 56.0863346,2.28936979 L36.7863346,9.22466391 C36.2136244,9.43009511 35.8110902,9.94782619 35.7531669,10.5535025 C35.6952436,11.1591787 35.9923535,11.7438197 36.5157463,12.0540757 L65.4804522,29.2334874 C65.9390035,29.503969 66.516558,29.4652749 66.9349305,29.1360423 C67.353303,28.8068098 67.5267102,28.2545451 67.3716287,27.7452521 L60.2039816,4.34819332 Z M30.2951581,52.142311 C30.29905,52.8326559 30.6692937,53.4689911 31.2675319,53.813523 C31.8657702,54.1580549 32.6019781,54.1589373 33.2010404,53.8158404 L62.4128051,37.0305463 L62.4392757,37.0158404 C63.0404189,36.6712459 63.4131342,36.0331381 63.4180274,35.3402493 C63.422825,34.6473604 63.0590702,34.0041025 62.4628051,33.6511345 L32.9716287,16.159958 C32.3866415,15.8122754 31.6598241,15.8062615 31.0691638,16.1442166 C30.4785036,16.4821717 30.1153837,17.1118095 30.1186651,17.792311 L30.2951581,52.142311 Z M77.5686875,40.2452521 C77.854897,39.6885079 77.8020358,39.0178499 77.4321373,38.5128201 C77.0622387,38.0077903 76.4387796,37.7550547 75.8216287,37.859958 C73.8170263,38.2061203 72.1680491,39.6321403 71.5363346,41.5658404 L63.3980993,66.5805463 C63.3593343,66.7131246 63.4266507,66.8536183 63.5542662,66.9064768 C63.6818818,66.9593353 63.8288245,66.9075881 63.8951581,66.7864286 L77.5686875,40.2452521 Z M75.9745698,33.4187816 C76.459653,33.5185247 76.9586522,33.3286905 77.2547821,32.9317504 C77.550912,32.5348103 77.5907243,32.002408 77.3569228,31.5658404 L64.0010404,6.58936979 C63.9498729,6.47647631 63.8168751,6.42643756 63.7039816,6.47760512 C63.5910881,6.52877267 63.5410494,6.66177041 63.5922169,6.77466391 L72.3539816,30.3217227 C72.9477295,31.9081603 74.3152999,33.0779828 75.9745698,33.4187816 Z M22.2216287,53.0276051 C22.7503874,53.3983713 23.4418611,53.4430397 24.0139282,53.1433855 C24.5859953,52.8437313 24.9429967,52.2498617 24.9393045,51.6040757 L24.7833934,18.609958 C24.7791981,17.9911848 24.4223811,17.4290182 23.8642471,17.1618397 C23.3061131,16.8946612 22.6444633,16.9692881 22.159864,17.3540757 L0.942216904,34.2452521 C0.325805519,34.7340503 -0.0231432909,35.4855604 0.00119371049,36.2718773 C0.0255307119,37.0581942 0.420286513,37.7866862 1.06574632,38.2364286 L22.2216287,53.0276051 Z M0.683393375,29.3187816 C0.574880633,29.5243885 0.628469953,29.7781449 0.810851058,29.9223196 C0.993232163,30.0664944 1.25250557,30.0600604 1.42751102,29.9070169 L21.0657463,11.6717227 C22.4094613,10.4188945 22.4883278,8.31578713 21.2422169,6.96584038 L19.0392757,4.58936979 C18.5077245,4.01161937 17.7344425,3.7189925 16.9535679,3.80009223 C16.1726933,3.88119197 15.4760495,4.32648175 15.0745698,5.0011345 L0.683393375,29.3187816 Z M31.7216287,64.509958 C29.8685807,63.8208089 27.7828755,64.4279941 26.5892757,66.0040757 L23.6216287,69.9393698 C23.2327224,70.4524734 23.1640196,71.1401919 23.4437354,71.7200906 C23.7234513,72.2999893 24.3044401,72.6743272 24.9480993,72.6893698 L52.4451581,73.4041056 C52.715012,73.4068501 52.9482954,73.2163794 52.9995538,72.9514239 C53.0508122,72.6864684 52.9053994,72.422735 52.6539816,72.3246639 L31.7216287,64.509958 Z M66.6157463,43.4276051 C66.7587276,42.8844882 66.5611176,42.3086675 66.1147695,41.9677965 C65.6684214,41.6269255 65.0608906,41.5878691 64.5745698,41.8687816 L36.3833934,58.1364286 C35.8264066,58.4573231 35.4956815,59.0627896 35.5266692,59.7048544 C35.5576569,60.3469193 35.9451518,60.9177227 36.5304522,61.1834874 L56.2128051,70.1246639 C56.9673622,70.4684233 57.8352506,70.4612268 58.5840034,70.105002 C59.3327562,69.7487772 59.8858579,69.0799269 60.0951581,68.2776051 L66.6157463,43.4276051 Z M21.827511,63.3776051 C22.9406504,61.8861352 22.6727988,59.78103 21.2216287,58.6158404 L1.76574632,42.9981933 C1.53637768,42.8124165 1.20679007,42.8179271 0.983760189,43.0112679 C0.760730305,43.2046088 0.708511142,43.53008 0.859863963,43.7834874 L14.8716287,67.559958 C15.2485987,68.1996704 15.9207102,68.6082714 16.6621424,68.6484767 C17.4035747,68.6886819 18.1159291,68.3551556 18.559864,67.759958 L21.827511,63.3776051 Z"
                id="形状"></path>
        </g>
    </g>
</svg>