<?xml version="1.0" standalone="no"?>
<!DOCTYPE svg PUBLIC "-//W3C//DTD SVG 1.1//EN" "http://www.w3.org/Graphics/SVG/1.1/DTD/svg11.dtd">
<svg width="27px" height="30px" viewBox="0 0 27 30" version="1.1" xmlns="http://www.w3.org/2000/svg" xmlns:xlink="http://www.w3.org/1999/xlink">
    <g id="页面-4" stroke="none" stroke-width="1" fill="none" fill-rule="evenodd">
        <g id="icon" transform="translate(0.588235, 0.155866)" fill-rule="nonzero">
            <g id="编组">
                <polygon id="路径" fill="#2084F7" points="6.12352941 25.6352941 0 22.1411765 0 7.36470588 6.12352941 10.9911765"></polygon>
                <polygon id="路径" fill="#22CFEE" points="5.57352941 4.12647059 0 7.36470588 6.12352941 10.9911765 11.6970588 7.80588235"></polygon>
                <polygon id="路径" fill="#23B0F1" points="25.45 14.8676471 25.4176471 22.0411765 12.6558824 29.4117647 12.6970588 22.1882353"></polygon>
                <polygon id="路径" fill="#2084F7" points="7.08823529 26.1382353 12.6558824 29.4117647 12.6970588 22.1882353 7.10294118 19.0764706"></polygon>
                <polygon id="路径" fill="#22CFEE" points="6.59117647 3.57941176 12.6647059 0 25.3941176 7.36470588 19.3882353 10.9411765"></polygon>
                <polygon id="路径" fill="#23B0F1" points="25.4029412 13.8176471 25.3941176 7.36470588 19.3882353 10.9411765 19.3941176 17.3558824"></polygon>
                <polygon id="路径" fill="#22CFEE" points="17.8794118 17.6823529 12.7264706 20.6558824 7.57352941 17.6823529 7.57352941 11.7294118 12.7264706 8.75588235 17.8794118 11.7294118 17.8794118 17.6823529"></polygon>
            </g>
        </g>
    </g>
</svg>