<?xml version="1.0" encoding="UTF-8"?>
<svg width="128px" height="128px" viewBox="0 0 128 128" version="1.1" xmlns="http://www.w3.org/2000/svg" xmlns:xlink="http://www.w3.org/1999/xlink">
    <title>icon</title>
    <defs>
        <linearGradient x1="0%" y1="24.1045182%" x2="100%" y2="100%" id="linearGradient-1">
            <stop stop-color="#FF7DB4" offset="0%"></stop>
            <stop stop-color="#654EA3" offset="100%"></stop>
        </linearGradient>
    </defs>
    <g id="icon" stroke="none" stroke-width="1" fill="none" fill-rule="evenodd">
        <g id="icon">
            <rect id="矩形" fill="url(#linearGradient-1)" x="0" y="0" width="128" height="128" rx="25"></rect>
            <path d="M47.3882179,24.1437524 C49.1854035,25.9901504 51.9003855,26.747639 54.4582472,26.1163132 L79.2998107,19.9858683 C79.5706292,19.9348344 79.7529498,19.6916152 79.7158742,19.4308315 C79.6787986,19.1700478 79.4351456,18.9818653 79.1598476,19.001391 L47.0477671,19.3620054 C46.2918415,19.3617969 45.6083817,19.7906868 45.3097145,20.4526814 C45.0110474,21.1146759 45.1545385,21.8826247 45.6746153,22.405591 L47.3882179,24.1437524 Z M91.4312092,24.3312719 C91.1031571,23.3116005 90.3511792,22.4645937 89.3504983,21.9876175 C88.3498174,21.5106412 87.1878335,21.4453548 86.1353071,21.806971 L61.3126576,30.3102587 C60.5760678,30.5621356 60.0583493,31.1969199 59.9838514,31.939533 C59.9093535,32.682146 60.2914807,33.3989677 60.9646412,33.7793692 L98.2175294,54.8428565 C98.8072941,55.174491 99.5501144,55.1270484 100.088203,54.7233801 C100.626292,54.3197118 100.849319,53.6425861 100.649862,53.0181476 L91.4312092,24.3312719 Z M52.9640462,82.9311123 C52.9690518,83.7775365 53.4452399,84.5577401 54.2146626,84.9801669 C54.9840853,85.4025937 55.9309573,85.4036756 56.70144,84.9830082 L94.2720824,64.4027443 L94.3061275,64.3847135 C95.0792863,63.96221 95.5586533,63.1798331 95.5649466,62.3302897 C95.571117,61.4807464 95.1032747,60.692055 94.3363898,60.2592848 L56.4063826,38.8135463 C55.6540028,38.3872564 54.7192082,38.3798829 53.9595319,38.7942459 C53.1998556,39.2086089 52.7328299,39.9806009 52.7370503,40.8149562 L52.9640462,82.9311123 Z M113.764785,68.3442597 C114.132893,67.6616417 114.064905,66.8393553 113.589161,66.2201438 C113.113417,65.6009324 112.311556,65.2910561 111.517809,65.4196769 C108.939595,65.8441026 106.818766,67.5925301 106.006288,69.9634184 L95.5393161,100.633673 C95.4894586,100.796226 95.5760374,100.968484 95.7401699,101.033293 C95.9043023,101.098102 96.0932924,101.034656 96.1786071,100.886103 L113.764785,68.3442597 Z M111.714514,59.9743994 C112.338403,60.0966934 112.980189,59.8639397 113.361056,59.3772558 C113.741923,58.8905719 113.793127,58.2377994 113.492424,57.7025287 L96.3147875,27.0791536 C96.2489784,26.9407362 96.0779237,26.8793842 95.932726,26.9421202 C95.7875283,27.0048561 95.723171,27.1679232 95.7889801,27.3063407 L107.057903,56.1771297 C107.821551,58.1222433 109.580448,59.5565499 111.714514,59.9743994 Z M42.5802954,84.0165616 C43.2603572,84.471154 44.1496945,84.5259214 44.8854573,84.1585187 C45.62122,83.791116 46.0803765,83.062979 46.0756278,82.2711879 L45.875103,41.8174642 C45.8697074,41.0587932 45.410788,40.369527 44.6929452,40.0419424 C43.9751024,39.7143577 43.1241232,39.805857 42.5008569,40.2776407 L15.2118301,60.9877259 C14.419034,61.5870359 13.9702343,62.5084541 14.0015353,63.4725486 C14.0328363,64.4366431 14.5405505,65.3298391 15.3707071,65.8812633 L42.5802954,84.0165616 Z M14.8789448,54.9474346 C14.7393814,55.1995271 14.8083052,55.5106549 15.0428742,55.687426 C15.2774432,55.8641971 15.6109071,55.8563085 15.8359899,55.6686634 L41.09366,33.3105705 C42.8218759,31.7744916 42.9233099,29.1958949 41.3206273,27.54074 L38.4873197,24.6269757 C37.8036663,23.9186023 36.8091114,23.5598157 35.8047914,23.6592512 C34.8004714,23.7586867 33.9044847,24.3046516 33.3881225,25.1318358 L14.8789448,54.9474346 Z M54.798698,98.0949479 C52.4154047,97.2499897 49.7328799,97.9944528 48.1977344,99.9268691 L44.3809021,104.75189 C43.8807112,105.381 43.7923493,106.224205 44.1521052,106.935212 C44.511861,107.646219 45.2590984,108.105191 46.0869391,108.123634 L81.4522166,108.999964 C81.7992886,109.003329 82.0993254,108.769795 82.1652513,108.444936 C82.2311772,108.120077 82.0441549,107.796716 81.7207945,107.676473 L54.798698,98.0949479 Z M99.6776853,72.2461075 C99.8615803,71.5801978 99.6074246,70.8741905 99.0333551,70.4562523 C98.4592856,70.0383141 97.6779112,69.9904275 97.052431,70.3348512 L60.7944157,90.2804338 C60.0780485,90.673879 59.6526872,91.4162347 59.692542,92.2034634 C59.7323967,92.990692 60.2307723,93.6905477 60.9835551,94.016399 L86.297967,104.979077 C87.2684388,105.400556 88.3846714,105.391733 89.3476781,104.95497 C90.3106847,104.518206 91.0220551,103.698136 91.2912461,102.714418 L99.6776853,72.2461075 Z M42.0734019,96.7065824 C43.5050635,94.8779077 43.1605668,92.2968614 41.2941478,90.8682353 L16.2710105,71.7196105 C15.9760085,71.4918315 15.5521102,71.4985881 15.2652609,71.7356411 C14.9784115,71.9726942 14.9112499,72.3717509 15.105912,72.6824509 L33.1271102,101.834519 C33.6119493,102.618863 34.4763839,103.119845 35.4299753,103.16914 C36.3835666,103.218435 37.2997596,102.809502 37.8707253,102.079737 L42.0734019,96.7065824 Z" id="形状" fill="#FFFFFF" fill-rule="nonzero"></path>
        </g>
    </g>
</svg>