<?xml version="1.0" standalone="no"?><!DOCTYPE svg PUBLIC "-//W3C//DTD SVG 1.1//EN" "http://www.w3.org/Graphics/SVG/1.1/DTD/svg11.dtd"><svg t="1658837541751" class="icon" viewBox="0 0 1024 1024" version="1.1" xmlns="http://www.w3.org/2000/svg" p-id="2354" xmlns:xlink="http://www.w3.org/1999/xlink" width="128" height="128"><defs><style type="text/css"></style></defs><path d="M364.790165 567.983936c0-20.79972-6.399755-39.998985-17.598811-55.999404h164.79524v-159.99594c-16.000419 11.199056-35.199684 17.598811-55.999404 17.598811-55.999404 0-100.797689-44.798286-100.797689-100.797689s44.798286-100.797689 100.797689-100.79769c20.79972 0 39.998985 6.399755 55.999404 17.598811V16.000419H16.000419v495.986175h164.79524c-11.199056 16.000419-17.598811 35.199684-17.598811 55.999404 0 55.999404 44.798286 100.797689 100.79769 100.797689s100.795627-44.80241 100.795627-100.799751z" fill="#FFFFFF" p-id="2355"></path><path d="M263.992475 684.779981c-63.997551 0-116.796046-52.798495-116.796046-116.796045 0-14.399965 3.200909-27.199475 6.399755-39.998985H16.000419C6.399755 527.984951 0 521.585196 0 511.984532V16.000419C0 6.399755 6.399755 0 16.000419 0h495.986175C521.585196 0 527.984951 6.399755 527.984951 16.000419v169.594541c0 6.399755-3.200909 11.199056-8.00021 14.399964-4.799301 3.200909-11.199056 3.200909-16.000419-1.600454-14.399965-9.600664-30.398321-14.399965-47.999194-14.399964-46.39874 0-84.79727 38.398531-84.797271 84.79727s38.398531 84.79727 84.797271 84.797271c17.598811 0 33.59923-4.799301 47.999194-14.399965 4.799301-3.200909 11.199056-3.200909 16.000419-1.600454 4.799301 3.200909 8.000209 8.000209 8.00021 14.399964v159.99594c0 9.600664-6.399755 16.000419-16.000419 16.000419h-139.19622c4.799301 12.79951 6.399755 27.199475 6.399755 39.998985 1.600454 63.997551-51.198041 116.796046-115.195592 116.796045zM31.998775 495.986175H180.793597c6.399755 0 11.199056 3.200909 14.399964 8.00021s3.200909 11.199056-1.600454 16.000419c-9.600664 14.399965-14.399965 30.398321-14.399965 47.999194 0 46.39874 38.398531 84.79727 84.797271 84.79727s84.79727-38.398531 84.79727-84.79727c0-17.598811-4.799301-33.59923-14.399964-47.999194-3.200909-4.799301-3.200909-11.199056-1.600455-16.000419 3.200909-4.799301 8.000209-8.000209 14.399965-8.00021h148.794821v-116.796046c-12.79951 4.799301-27.199475 6.399755-39.998985 6.399755-63.997551 0-116.796046-52.798495-116.796045-116.796046s52.798495-116.796046 116.796045-116.796045c14.399965 0 27.199475 3.200909 39.998985 6.399755V30.398321H31.998775v465.587854z" fill="#193651" p-id="2356"></path><path d="M511.984532 16.000419v164.79524c-16.000419-11.199056-35.199684-17.598811-55.999404-17.598811-55.999404 0-100.797689 44.798286-100.79769 100.79769s44.798286 100.797689 100.79769 100.797689c20.79972 0 39.998985-6.399755 55.999404-17.598811v164.795241h164.79524c-11.199056-16.000419-17.598811-35.199684-17.598811-55.999404 0-55.999404 44.798286-100.797689 100.79769-100.79769s100.797689 44.798286 100.797689 100.79769c0 20.79972-6.399755 39.998985-17.598811 55.999404h164.79524V16.000419H511.984532z" fill="#FFFFFF" p-id="2357"></path><path d="M1007.970707 527.984951h-164.79524c-6.399755 0-11.199056-3.200909-14.399965-8.00021s-3.200909-11.199056 1.600454-16.000419c9.600664-14.399965 14.399965-30.398321 14.399965-47.999194 0-46.39874-38.398531-84.79727-84.79727-84.797271-46.39874 0-84.79727 38.398531-84.797271 84.797271 0 16.000419 4.799301 31.998775 12.79951 44.798285 3.200909 3.200909 4.799301 6.399755 4.799301 11.199056 0 9.600664-6.399755 16.000419-16.000419 16.000419h-164.79524c-9.600664 0-16.000419-6.399755-16.000419-16.000419V372.786249c-12.79951 4.799301-27.199475 6.399755-39.998985 6.399755-63.997551 0-116.796046-52.798495-116.796046-116.796046s52.798495-116.796046 116.796046-116.796045c14.399965 0 27.199475 3.200909 39.998985 6.399755V16.000419c0-9.600664 6.399755-16.000419 16.000419-16.000419h495.986175c9.600664 0 16.000419 6.399755 16.000419 16.000419v495.986175c0 9.598601-6.399755 15.998356-16.000419 15.998357z m-139.19622-31.998776h123.195801V31.998775H527.984951V180.793597c0 6.399755-3.200909 11.199056-8.00021 14.399964s-11.199056 3.200909-16.000419-1.600454c-14.399965-9.600664-30.398321-14.399965-47.999194-14.399965-46.39874 0-84.79727 38.398531-84.797271 84.797271s38.398531 84.79727 84.797271 84.79727c17.598811 0 33.59923-4.799301 47.999194-14.399964 4.799301-3.200909 11.199056-3.200909 16.000419-1.600455 4.799301 3.200909 8.000209 8.000209 8.00021 14.399965v148.794821h123.195801c-4.799301-12.79951-6.399755-27.199475-6.399755-39.998985 0-63.997551 52.798495-116.796046 116.796045-116.796045s116.796046 52.798495 116.796046 116.796045c-1.598392 12.803635-4.797238 27.2036-9.598601 40.00311z" fill="#193651" p-id="2358"></path><path d="M924.773891 447.986981c-4.799301-87.998179-76.797061-156.795031-164.79524-156.795031s-159.99594 70.397306-164.795241 156.795031h-19.199265V79.99797h367.989011v367.989011h-19.199265z" fill="#F16051" p-id="2359"></path><path d="M79.99797 447.986981V79.99797h367.989011v19.199265c-87.998179 4.799301-156.795031 76.797061-156.795031 164.79524s70.397306 159.99594 156.795031 164.795241v19.199265H79.99797z" fill="#4FBF9F" p-id="2360"></path><path d="M567.983936 659.180961c-20.79972 0-39.998985 6.399755-55.999404 17.598811v-164.79524h-159.99594c11.199056 16.000419 17.598811 35.199684 17.598811 55.999404 0 55.999404-44.798286 100.797689-100.797689 100.797689s-100.797689-44.798286-100.79769-100.797689c0-20.79972 6.399755-39.998985 17.598811-55.999404H16.000419v495.986175h495.986175v-164.79524c16.000419 11.199056 35.199684 17.598811 55.999404 17.59881 55.999404 0 100.797689-44.798286 100.797689-100.797689s-44.80241-100.795627-100.799751-100.795627z" fill="#FFFFFF" p-id="2361"></path><path d="M511.984532 1023.971126H16.000419c-9.600664 0-16.000419-6.399755-16.000419-16.000419V511.984532c0-9.600664 6.399755-16.000419 16.000419-16.000419h169.594541c6.399755 0 11.199056 3.200909 14.399964 8.000209 3.200909 4.799301 3.200909 11.199056-1.600454 16.000419-9.600664 14.399965-14.399965 30.398321-14.399964 47.999195 0 46.39874 38.398531 84.79727 84.79727 84.79727s84.79727-38.398531 84.797271-84.79727c0-17.598811-4.799301-33.59923-14.399965-47.999195-3.200909-4.799301-3.200909-11.199056-1.600454-16.000419 3.200909-4.799301 8.000209-8.000209 14.399964-8.000209h159.99594c9.600664 0 16.000419 6.399755 16.000419 16.000419v139.19622c12.79951-4.799301 27.199475-6.399755 39.998985-6.399755 63.997551 0 116.796046 52.798495 116.796045 116.796045s-52.798495 116.796046-116.796045 116.796046c-14.399965 0-27.199475-3.200909-39.998985-6.399755v135.995311c0 9.602726-6.399755 16.002481-16.000419 16.002482zM31.998775 991.97235h463.9874v-148.794821c0-6.399755 3.200909-11.199056 8.00021-14.399964s11.199056-3.200909 16.000419 1.600454c14.399965 9.600664 30.398321 14.399965 47.999194 14.399964 46.39874 0 84.79727-38.398531 84.79727-84.79727s-38.398531-84.79727-84.79727-84.797271c-17.598811 0-33.59923 4.799301-47.999194 14.399965-4.799301 3.200909-11.199056 3.200909-16.000419 1.600454-4.799301-3.200909-8.000209-8.000209-8.00021-14.399964V527.984951h-116.796046c4.799301 12.79951 6.399755 27.199475 6.399755 39.998985 0 63.997551-52.798495 116.796046-116.796046 116.796045s-116.796046-52.798495-116.796045-116.796045c0-14.399965 3.200909-27.199475 6.399755-39.998985H30.398321v463.987399h1.600454z" fill="#193651" p-id="2362"></path><path d="M79.99797 943.973156V575.984145h23.998566c4.799301 87.998179 76.797061 156.795031 164.79524 156.795031s159.99594-70.397306 164.79524-156.795031h14.399965v367.989011H79.99797z" fill="#FDBF5E" p-id="2363"></path><path d="M129.595556 127.997164h31.998776v31.998776H129.595556zM862.374732 127.997164h31.998775v31.998776h-31.998775z" fill="#193651" p-id="2364"></path><path d="M1007.970707 511.984532h-164.79524c11.199056-16.000419 17.598811-35.199684 17.59881-55.999404 0-55.999404-44.798286-100.797689-100.797689-100.79769s-100.797689 44.798286-100.797689 100.79769c0 20.79972 6.399755 39.998985 17.598811 55.999404h-164.795241v164.79524c16.000419-11.199056 35.199684-17.598811 55.999404-17.598811 55.999404 0 100.797689 44.798286 100.797689 100.79769s-44.798286 100.797689-100.797689 100.797689c-20.79972 0-39.998985-6.399755-55.999404-17.598811v164.79524h495.986175V511.984532z" fill="#FFFFFF" p-id="2365"></path><path d="M1007.970707 1023.971126H511.984532c-9.600664 0-16.000419-6.399755-16.000419-16.000419v-164.79524c0-6.399755 3.200909-11.199056 8.000209-14.399965s11.199056-3.200909 16.000419 1.600454c14.399965 9.600664 30.398321 14.399965 47.999195 14.399965 46.39874 0 84.79727-38.398531 84.79727-84.79727s-38.398531-84.79727-84.79727-84.797271c-17.598811 0-33.59923 4.799301-47.999195 14.399965-4.799301 3.200909-11.199056 3.200909-16.000419 1.600454-4.799301-3.200909-8.000209-8.000209-8.000209-14.399965v-164.79524c0-9.600664 6.399755-16.000419 16.000419-16.000419h139.19622c-4.799301-12.79951-6.399755-27.199475-6.399755-39.998985 0-63.997551 52.798495-116.796046 116.796045-116.796046s116.796046 52.798495 116.796046 116.796046c0 14.399965-3.200909 27.199475-6.399755 39.998985h135.995311c4.799301 0 8.000209 1.600454 11.199056 4.799301 3.198846 3.200909 4.799301 6.399755 4.799301 11.199056v495.986175c0.004125 9.600664-6.39563 16.000419-15.996294 16.000419zM527.984951 991.97235h463.987399V527.984951h-148.794821c-6.399755 0-11.199056-3.200909-14.399964-8.00021s-3.200909-11.199056 1.600454-16.000419c9.600664-14.399965 14.399965-30.398321 14.399964-47.999194 0-46.39874-38.398531-84.79727-84.79727-84.797271-46.39874 0-84.79727 38.398531-84.797271 84.797271 0 17.598811 4.799301 33.59923 14.399965 47.999194 3.200909 4.799301 3.200909 11.199056 1.600454 16.000419-3.200909 4.799301-8.000209 8.000209-14.399964 8.00021H527.984951v123.195801c12.79951-4.799301 27.199475-6.399755 39.998985-6.399755 63.997551 0 116.796046 52.798495 116.796045 116.796045s-52.798495 116.796046-116.796045 116.796046c-14.399965 0-27.199475-3.200909-39.998985-6.399755v119.999017z" fill="#193651" p-id="2366"></path><path d="M575.984145 943.973156v-19.199265c87.998179-4.799301 156.795031-76.797061 156.795031-164.79524s-70.397306-159.99594-156.795031-164.795241v-19.199265h367.989011v367.989011H575.984145z" fill="#2EA2DB" p-id="2367"></path><path d="M129.595556 868.774487h31.998776v31.998775H129.595556zM862.374732 868.774487h31.998775v31.998775h-31.998775z" fill="#193651" p-id="2368"></path></svg>